# DDEV explicit visual road mesh
mtllib DDEV_pothole_scene.mtl
v 139.907404 9.058667 -4.000000
v 141.100000 0.000000 -4.000000
v 141.100000 0.000000 45.000000
v 139.907404 9.058667 45.000000
v 136.410889 17.500000 -4.000000
v 139.907404 9.058667 -4.000000
v 139.907404 9.058667 45.000000
v 136.410889 17.500000 45.000000
v 130.848737 24.748737 -4.000000
v 136.410889 17.500000 -4.000000
v 136.410889 17.500000 45.000000
v 130.848737 24.748737 45.000000
v 123.600000 30.310889 -4.000000
v 130.848737 24.748737 -4.000000
v 130.848737 24.748737 45.000000
v 123.600000 30.310889 45.000000
v 115.158667 33.807404 -4.000000
v 123.600000 30.310889 -4.000000
v 123.600000 30.310889 45.000000
v 115.158667 33.807404 45.000000
v 106.100000 35.000000 -4.000000
v 115.158667 33.807404 -4.000000
v 115.158667 33.807404 45.000000
v 106.100000 35.000000 45.000000
v 97.041333 33.807404 -4.000000
v 106.100000 35.000000 -4.000000
v 106.100000 35.000000 45.000000
v 97.041333 33.807404 45.000000
v 88.600000 30.310889 -4.000000
v 97.041333 33.807404 -4.000000
v 97.041333 33.807404 45.000000
v 88.600000 30.310889 45.000000
v 81.351263 24.748737 -4.000000
v 88.600000 30.310889 -4.000000
v 88.600000 30.310889 45.000000
v 81.351263 24.748737 45.000000
v 75.789111 17.500000 -4.000000
v 81.351263 24.748737 -4.000000
v 81.351263 24.748737 45.000000
v 75.789111 17.500000 45.000000
v 72.292596 9.058667 -4.000000
v 75.789111 17.500000 -4.000000
v 75.789111 17.500000 45.000000
v 72.292596 9.058667 45.000000
v 71.100000 0.000000 -4.000000
v 72.292596 9.058667 -4.000000
v 72.292596 9.058667 45.000000
v 71.100000 0.000000 45.000000
v 72.292596 -9.058667 -4.000000
v 71.100000 0.000000 -4.000000
v 71.100000 0.000000 45.000000
v 72.292596 -9.058667 45.000000
v 75.789111 -17.500000 -4.000000
v 72.292596 -9.058667 -4.000000
v 72.292596 -9.058667 45.000000
v 75.789111 -17.500000 45.000000
v 81.351263 -24.748737 -4.000000
v 75.789111 -17.500000 -4.000000
v 75.789111 -17.500000 45.000000
v 81.351263 -24.748737 45.000000
v 88.600000 -30.310889 -4.000000
v 81.351263 -24.748737 -4.000000
v 81.351263 -24.748737 45.000000
v 88.600000 -30.310889 45.000000
v 97.041333 -33.807404 -4.000000
v 88.600000 -30.310889 -4.000000
v 88.600000 -30.310889 45.000000
v 97.041333 -33.807404 45.000000
v 106.100000 -35.000000 -4.000000
v 97.041333 -33.807404 -4.000000
v 97.041333 -33.807404 45.000000
v 106.100000 -35.000000 45.000000
v 115.158667 -33.807404 -4.000000
v 106.100000 -35.000000 -4.000000
v 106.100000 -35.000000 45.000000
v 115.158667 -33.807404 45.000000
v 123.600000 -30.310889 -4.000000
v 115.158667 -33.807404 -4.000000
v 115.158667 -33.807404 45.000000
v 123.600000 -30.310889 45.000000
v 130.848737 -24.748737 -4.000000
v 123.600000 -30.310889 -4.000000
v 123.600000 -30.310889 45.000000
v 130.848737 -24.748737 45.000000
v 136.410889 -17.500000 -4.000000
v 130.848737 -24.748737 -4.000000
v 130.848737 -24.748737 45.000000
v 136.410889 -17.500000 45.000000
v 139.907404 -9.058667 -4.000000
v 136.410889 -17.500000 -4.000000
v 136.410889 -17.500000 45.000000
v 139.907404 -9.058667 45.000000
v 141.100000 -0.000000 -4.000000
v 139.907404 -9.058667 -4.000000
v 139.907404 -9.058667 45.000000
v 141.100000 -0.000000 45.000000
v 86.100000 -200.000000 0.010000
v 146.900000 -200.000000 0.010000
v 146.900000 -5.000000 0.010000
v 86.100000 -5.000000 0.010000
v 86.100000 5.000000 0.010000
v 146.900000 5.000000 0.010000
v 146.900000 200.000000 0.010000
v 86.100000 200.000000 0.010000
v 86.100000 -5.000000 0.020000
v 101.100000 -5.000000 0.020000
v 101.100000 5.000000 0.020000
v 86.100000 5.000000 0.020000
v 101.900000 -5.000000 0.020000
v 146.900000 -5.000000 0.020000
v 146.900000 5.000000 0.020000
v 101.900000 5.000000 0.020000
v 101.100000 -5.000000 0.020000
v 101.900000 -5.000000 0.020000
v 101.900000 -1.080000 0.020000
v 101.100000 -1.080000 0.020000
v 101.100000 -0.180000 0.020000
v 101.900000 -0.180000 0.020000
v 101.900000 5.000000 0.020000
v 101.100000 5.000000 0.020000
v 101.100000 -1.080000 0.020000
v 101.150000 -1.080000 0.020000
v 101.150000 -1.030000 -0.180000
v 101.100000 -1.030000 0.020000
v 101.100000 -1.030000 0.020000
v 101.150000 -1.030000 -0.180000
v 101.150000 -0.980000 -0.180000
v 101.100000 -0.980000 0.020000
v 101.100000 -0.980000 0.020000
v 101.150000 -0.980000 -0.180000
v 101.150000 -0.930000 -0.180000
v 101.100000 -0.930000 0.020000
v 101.100000 -0.930000 0.020000
v 101.150000 -0.930000 -0.180000
v 101.150000 -0.880000 -0.180000
v 101.100000 -0.880000 0.020000
v 101.100000 -0.880000 0.020000
v 101.150000 -0.880000 -0.180000
v 101.150000 -0.830000 -0.180000
v 101.100000 -0.830000 0.020000
v 101.100000 -0.830000 0.020000
v 101.150000 -0.830000 -0.180000
v 101.150000 -0.780000 -0.180000
v 101.100000 -0.780000 0.020000
v 101.100000 -0.780000 0.020000
v 101.150000 -0.780000 -0.180000
v 101.150000 -0.730000 -0.180000
v 101.100000 -0.730000 0.020000
v 101.100000 -0.730000 0.020000
v 101.150000 -0.730000 -0.180000
v 101.150000 -0.680000 -0.180000
v 101.100000 -0.680000 0.020000
v 101.100000 -0.680000 0.020000
v 101.150000 -0.680000 -0.180000
v 101.150000 -0.630000 -0.180000
v 101.100000 -0.630000 0.020000
v 101.100000 -0.630000 0.020000
v 101.150000 -0.630000 -0.180000
v 101.150000 -0.580000 -0.180000
v 101.100000 -0.580000 0.020000
v 101.100000 -0.580000 0.020000
v 101.150000 -0.580000 -0.180000
v 101.150000 -0.530000 -0.180000
v 101.100000 -0.530000 0.020000
v 101.100000 -0.530000 0.020000
v 101.150000 -0.530000 -0.180000
v 101.150000 -0.480000 -0.180000
v 101.100000 -0.480000 0.020000
v 101.100000 -0.480000 0.020000
v 101.150000 -0.480000 -0.180000
v 101.150000 -0.430000 -0.180000
v 101.100000 -0.430000 0.020000
v 101.100000 -0.430000 0.020000
v 101.150000 -0.430000 -0.180000
v 101.150000 -0.380000 -0.180000
v 101.100000 -0.380000 0.020000
v 101.100000 -0.380000 0.020000
v 101.150000 -0.380000 -0.180000
v 101.150000 -0.330000 -0.180000
v 101.100000 -0.330000 0.020000
v 101.100000 -0.330000 0.020000
v 101.150000 -0.330000 -0.180000
v 101.150000 -0.280000 -0.180000
v 101.100000 -0.280000 0.020000
v 101.100000 -0.280000 0.020000
v 101.150000 -0.280000 -0.180000
v 101.150000 -0.230000 -0.180000
v 101.100000 -0.230000 0.020000
v 101.100000 -0.230000 0.020000
v 101.150000 -0.230000 -0.180000
v 101.150000 -0.180000 0.020000
v 101.100000 -0.180000 0.020000
v 101.150000 -1.080000 0.020000
v 101.200000 -1.080000 0.020000
v 101.200000 -1.030000 -0.180000
v 101.150000 -1.030000 -0.180000
v 101.150000 -1.030000 -0.180000
v 101.200000 -1.030000 -0.180000
v 101.200000 -0.980000 -0.180000
v 101.150000 -0.980000 -0.180000
v 101.150000 -0.980000 -0.180000
v 101.200000 -0.980000 -0.180000
v 101.200000 -0.930000 -0.180000
v 101.150000 -0.930000 -0.180000
v 101.150000 -0.930000 -0.180000
v 101.200000 -0.930000 -0.180000
v 101.200000 -0.880000 -0.180000
v 101.150000 -0.880000 -0.180000
v 101.150000 -0.880000 -0.180000
v 101.200000 -0.880000 -0.180000
v 101.200000 -0.830000 -0.180000
v 101.150000 -0.830000 -0.180000
v 101.150000 -0.830000 -0.180000
v 101.200000 -0.830000 -0.180000
v 101.200000 -0.780000 -0.180000
v 101.150000 -0.780000 -0.180000
v 101.150000 -0.780000 -0.180000
v 101.200000 -0.780000 -0.180000
v 101.200000 -0.730000 -0.180000
v 101.150000 -0.730000 -0.180000
v 101.150000 -0.730000 -0.180000
v 101.200000 -0.730000 -0.180000
v 101.200000 -0.680000 -0.180000
v 101.150000 -0.680000 -0.180000
v 101.150000 -0.680000 -0.180000
v 101.200000 -0.680000 -0.180000
v 101.200000 -0.630000 -0.180000
v 101.150000 -0.630000 -0.180000
v 101.150000 -0.630000 -0.180000
v 101.200000 -0.630000 -0.180000
v 101.200000 -0.580000 -0.180000
v 101.150000 -0.580000 -0.180000
v 101.150000 -0.580000 -0.180000
v 101.200000 -0.580000 -0.180000
v 101.200000 -0.530000 -0.180000
v 101.150000 -0.530000 -0.180000
v 101.150000 -0.530000 -0.180000
v 101.200000 -0.530000 -0.180000
v 101.200000 -0.480000 -0.180000
v 101.150000 -0.480000 -0.180000
v 101.150000 -0.480000 -0.180000
v 101.200000 -0.480000 -0.180000
v 101.200000 -0.430000 -0.180000
v 101.150000 -0.430000 -0.180000
v 101.150000 -0.430000 -0.180000
v 101.200000 -0.430000 -0.180000
v 101.200000 -0.380000 -0.180000
v 101.150000 -0.380000 -0.180000
v 101.150000 -0.380000 -0.180000
v 101.200000 -0.380000 -0.180000
v 101.200000 -0.330000 -0.180000
v 101.150000 -0.330000 -0.180000
v 101.150000 -0.330000 -0.180000
v 101.200000 -0.330000 -0.180000
v 101.200000 -0.280000 -0.180000
v 101.150000 -0.280000 -0.180000
v 101.150000 -0.280000 -0.180000
v 101.200000 -0.280000 -0.180000
v 101.200000 -0.230000 -0.180000
v 101.150000 -0.230000 -0.180000
v 101.150000 -0.230000 -0.180000
v 101.200000 -0.230000 -0.180000
v 101.200000 -0.180000 0.020000
v 101.150000 -0.180000 0.020000
v 101.200000 -1.080000 0.020000
v 101.250000 -1.080000 0.020000
v 101.250000 -1.030000 -0.180000
v 101.200000 -1.030000 -0.180000
v 101.200000 -1.030000 -0.180000
v 101.250000 -1.030000 -0.180000
v 101.250000 -0.980000 -0.180000
v 101.200000 -0.980000 -0.180000
v 101.200000 -0.980000 -0.180000
v 101.250000 -0.980000 -0.180000
v 101.250000 -0.930000 -0.180000
v 101.200000 -0.930000 -0.180000
v 101.200000 -0.930000 -0.180000
v 101.250000 -0.930000 -0.180000
v 101.250000 -0.880000 -0.180000
v 101.200000 -0.880000 -0.180000
v 101.200000 -0.880000 -0.180000
v 101.250000 -0.880000 -0.180000
v 101.250000 -0.830000 -0.180000
v 101.200000 -0.830000 -0.180000
v 101.200000 -0.830000 -0.180000
v 101.250000 -0.830000 -0.180000
v 101.250000 -0.780000 -0.180000
v 101.200000 -0.780000 -0.180000
v 101.200000 -0.780000 -0.180000
v 101.250000 -0.780000 -0.180000
v 101.250000 -0.730000 -0.180000
v 101.200000 -0.730000 -0.180000
v 101.200000 -0.730000 -0.180000
v 101.250000 -0.730000 -0.180000
v 101.250000 -0.680000 -0.180000
v 101.200000 -0.680000 -0.180000
v 101.200000 -0.680000 -0.180000
v 101.250000 -0.680000 -0.180000
v 101.250000 -0.630000 -0.180000
v 101.200000 -0.630000 -0.180000
v 101.200000 -0.630000 -0.180000
v 101.250000 -0.630000 -0.180000
v 101.250000 -0.580000 -0.180000
v 101.200000 -0.580000 -0.180000
v 101.200000 -0.580000 -0.180000
v 101.250000 -0.580000 -0.180000
v 101.250000 -0.530000 -0.180000
v 101.200000 -0.530000 -0.180000
v 101.200000 -0.530000 -0.180000
v 101.250000 -0.530000 -0.180000
v 101.250000 -0.480000 -0.180000
v 101.200000 -0.480000 -0.180000
v 101.200000 -0.480000 -0.180000
v 101.250000 -0.480000 -0.180000
v 101.250000 -0.430000 -0.180000
v 101.200000 -0.430000 -0.180000
v 101.200000 -0.430000 -0.180000
v 101.250000 -0.430000 -0.180000
v 101.250000 -0.380000 -0.180000
v 101.200000 -0.380000 -0.180000
v 101.200000 -0.380000 -0.180000
v 101.250000 -0.380000 -0.180000
v 101.250000 -0.330000 -0.180000
v 101.200000 -0.330000 -0.180000
v 101.200000 -0.330000 -0.180000
v 101.250000 -0.330000 -0.180000
v 101.250000 -0.280000 -0.180000
v 101.200000 -0.280000 -0.180000
v 101.200000 -0.280000 -0.180000
v 101.250000 -0.280000 -0.180000
v 101.250000 -0.230000 -0.180000
v 101.200000 -0.230000 -0.180000
v 101.200000 -0.230000 -0.180000
v 101.250000 -0.230000 -0.180000
v 101.250000 -0.180000 0.020000
v 101.200000 -0.180000 0.020000
v 101.250000 -1.080000 0.020000
v 101.300000 -1.080000 0.020000
v 101.300000 -1.030000 -0.180000
v 101.250000 -1.030000 -0.180000
v 101.250000 -1.030000 -0.180000
v 101.300000 -1.030000 -0.180000
v 101.300000 -0.980000 -0.180000
v 101.250000 -0.980000 -0.180000
v 101.250000 -0.980000 -0.180000
v 101.300000 -0.980000 -0.180000
v 101.300000 -0.930000 -0.180000
v 101.250000 -0.930000 -0.180000
v 101.250000 -0.930000 -0.180000
v 101.300000 -0.930000 -0.180000
v 101.300000 -0.880000 -0.180000
v 101.250000 -0.880000 -0.180000
v 101.250000 -0.880000 -0.180000
v 101.300000 -0.880000 -0.180000
v 101.300000 -0.830000 -0.180000
v 101.250000 -0.830000 -0.180000
v 101.250000 -0.830000 -0.180000
v 101.300000 -0.830000 -0.180000
v 101.300000 -0.780000 -0.180000
v 101.250000 -0.780000 -0.180000
v 101.250000 -0.780000 -0.180000
v 101.300000 -0.780000 -0.180000
v 101.300000 -0.730000 -0.180000
v 101.250000 -0.730000 -0.180000
v 101.250000 -0.730000 -0.180000
v 101.300000 -0.730000 -0.180000
v 101.300000 -0.680000 -0.180000
v 101.250000 -0.680000 -0.180000
v 101.250000 -0.680000 -0.180000
v 101.300000 -0.680000 -0.180000
v 101.300000 -0.630000 -0.180000
v 101.250000 -0.630000 -0.180000
v 101.250000 -0.630000 -0.180000
v 101.300000 -0.630000 -0.180000
v 101.300000 -0.580000 -0.180000
v 101.250000 -0.580000 -0.180000
v 101.250000 -0.580000 -0.180000
v 101.300000 -0.580000 -0.180000
v 101.300000 -0.530000 -0.180000
v 101.250000 -0.530000 -0.180000
v 101.250000 -0.530000 -0.180000
v 101.300000 -0.530000 -0.180000
v 101.300000 -0.480000 -0.180000
v 101.250000 -0.480000 -0.180000
v 101.250000 -0.480000 -0.180000
v 101.300000 -0.480000 -0.180000
v 101.300000 -0.430000 -0.180000
v 101.250000 -0.430000 -0.180000
v 101.250000 -0.430000 -0.180000
v 101.300000 -0.430000 -0.180000
v 101.300000 -0.380000 -0.180000
v 101.250000 -0.380000 -0.180000
v 101.250000 -0.380000 -0.180000
v 101.300000 -0.380000 -0.180000
v 101.300000 -0.330000 -0.180000
v 101.250000 -0.330000 -0.180000
v 101.250000 -0.330000 -0.180000
v 101.300000 -0.330000 -0.180000
v 101.300000 -0.280000 -0.180000
v 101.250000 -0.280000 -0.180000
v 101.250000 -0.280000 -0.180000
v 101.300000 -0.280000 -0.180000
v 101.300000 -0.230000 -0.180000
v 101.250000 -0.230000 -0.180000
v 101.250000 -0.230000 -0.180000
v 101.300000 -0.230000 -0.180000
v 101.300000 -0.180000 0.020000
v 101.250000 -0.180000 0.020000
v 101.300000 -1.080000 0.020000
v 101.350000 -1.080000 0.020000
v 101.350000 -1.030000 -0.180000
v 101.300000 -1.030000 -0.180000
v 101.300000 -1.030000 -0.180000
v 101.350000 -1.030000 -0.180000
v 101.350000 -0.980000 -0.180000
v 101.300000 -0.980000 -0.180000
v 101.300000 -0.980000 -0.180000
v 101.350000 -0.980000 -0.180000
v 101.350000 -0.930000 -0.180000
v 101.300000 -0.930000 -0.180000
v 101.300000 -0.930000 -0.180000
v 101.350000 -0.930000 -0.180000
v 101.350000 -0.880000 -0.180000
v 101.300000 -0.880000 -0.180000
v 101.300000 -0.880000 -0.180000
v 101.350000 -0.880000 -0.180000
v 101.350000 -0.830000 -0.180000
v 101.300000 -0.830000 -0.180000
v 101.300000 -0.830000 -0.180000
v 101.350000 -0.830000 -0.180000
v 101.350000 -0.780000 -0.180000
v 101.300000 -0.780000 -0.180000
v 101.300000 -0.780000 -0.180000
v 101.350000 -0.780000 -0.180000
v 101.350000 -0.730000 -0.180000
v 101.300000 -0.730000 -0.180000
v 101.300000 -0.730000 -0.180000
v 101.350000 -0.730000 -0.180000
v 101.350000 -0.680000 -0.180000
v 101.300000 -0.680000 -0.180000
v 101.300000 -0.680000 -0.180000
v 101.350000 -0.680000 -0.180000
v 101.350000 -0.630000 -0.180000
v 101.300000 -0.630000 -0.180000
v 101.300000 -0.630000 -0.180000
v 101.350000 -0.630000 -0.180000
v 101.350000 -0.580000 -0.180000
v 101.300000 -0.580000 -0.180000
v 101.300000 -0.580000 -0.180000
v 101.350000 -0.580000 -0.180000
v 101.350000 -0.530000 -0.180000
v 101.300000 -0.530000 -0.180000
v 101.300000 -0.530000 -0.180000
v 101.350000 -0.530000 -0.180000
v 101.350000 -0.480000 -0.180000
v 101.300000 -0.480000 -0.180000
v 101.300000 -0.480000 -0.180000
v 101.350000 -0.480000 -0.180000
v 101.350000 -0.430000 -0.180000
v 101.300000 -0.430000 -0.180000
v 101.300000 -0.430000 -0.180000
v 101.350000 -0.430000 -0.180000
v 101.350000 -0.380000 -0.180000
v 101.300000 -0.380000 -0.180000
v 101.300000 -0.380000 -0.180000
v 101.350000 -0.380000 -0.180000
v 101.350000 -0.330000 -0.180000
v 101.300000 -0.330000 -0.180000
v 101.300000 -0.330000 -0.180000
v 101.350000 -0.330000 -0.180000
v 101.350000 -0.280000 -0.180000
v 101.300000 -0.280000 -0.180000
v 101.300000 -0.280000 -0.180000
v 101.350000 -0.280000 -0.180000
v 101.350000 -0.230000 -0.180000
v 101.300000 -0.230000 -0.180000
v 101.300000 -0.230000 -0.180000
v 101.350000 -0.230000 -0.180000
v 101.350000 -0.180000 0.020000
v 101.300000 -0.180000 0.020000
v 101.350000 -1.080000 0.020000
v 101.400000 -1.080000 0.020000
v 101.400000 -1.030000 -0.180000
v 101.350000 -1.030000 -0.180000
v 101.350000 -1.030000 -0.180000
v 101.400000 -1.030000 -0.180000
v 101.400000 -0.980000 -0.180000
v 101.350000 -0.980000 -0.180000
v 101.350000 -0.980000 -0.180000
v 101.400000 -0.980000 -0.180000
v 101.400000 -0.930000 -0.180000
v 101.350000 -0.930000 -0.180000
v 101.350000 -0.930000 -0.180000
v 101.400000 -0.930000 -0.180000
v 101.400000 -0.880000 -0.180000
v 101.350000 -0.880000 -0.180000
v 101.350000 -0.880000 -0.180000
v 101.400000 -0.880000 -0.180000
v 101.400000 -0.830000 -0.180000
v 101.350000 -0.830000 -0.180000
v 101.350000 -0.830000 -0.180000
v 101.400000 -0.830000 -0.180000
v 101.400000 -0.780000 -0.180000
v 101.350000 -0.780000 -0.180000
v 101.350000 -0.780000 -0.180000
v 101.400000 -0.780000 -0.180000
v 101.400000 -0.730000 -0.180000
v 101.350000 -0.730000 -0.180000
v 101.350000 -0.730000 -0.180000
v 101.400000 -0.730000 -0.180000
v 101.400000 -0.680000 -0.180000
v 101.350000 -0.680000 -0.180000
v 101.350000 -0.680000 -0.180000
v 101.400000 -0.680000 -0.180000
v 101.400000 -0.630000 -0.180000
v 101.350000 -0.630000 -0.180000
v 101.350000 -0.630000 -0.180000
v 101.400000 -0.630000 -0.180000
v 101.400000 -0.580000 -0.180000
v 101.350000 -0.580000 -0.180000
v 101.350000 -0.580000 -0.180000
v 101.400000 -0.580000 -0.180000
v 101.400000 -0.530000 -0.180000
v 101.350000 -0.530000 -0.180000
v 101.350000 -0.530000 -0.180000
v 101.400000 -0.530000 -0.180000
v 101.400000 -0.480000 -0.180000
v 101.350000 -0.480000 -0.180000
v 101.350000 -0.480000 -0.180000
v 101.400000 -0.480000 -0.180000
v 101.400000 -0.430000 -0.180000
v 101.350000 -0.430000 -0.180000
v 101.350000 -0.430000 -0.180000
v 101.400000 -0.430000 -0.180000
v 101.400000 -0.380000 -0.180000
v 101.350000 -0.380000 -0.180000
v 101.350000 -0.380000 -0.180000
v 101.400000 -0.380000 -0.180000
v 101.400000 -0.330000 -0.180000
v 101.350000 -0.330000 -0.180000
v 101.350000 -0.330000 -0.180000
v 101.400000 -0.330000 -0.180000
v 101.400000 -0.280000 -0.180000
v 101.350000 -0.280000 -0.180000
v 101.350000 -0.280000 -0.180000
v 101.400000 -0.280000 -0.180000
v 101.400000 -0.230000 -0.180000
v 101.350000 -0.230000 -0.180000
v 101.350000 -0.230000 -0.180000
v 101.400000 -0.230000 -0.180000
v 101.400000 -0.180000 0.020000
v 101.350000 -0.180000 0.020000
v 101.400000 -1.080000 0.020000
v 101.450000 -1.080000 0.020000
v 101.450000 -1.030000 -0.180000
v 101.400000 -1.030000 -0.180000
v 101.400000 -1.030000 -0.180000
v 101.450000 -1.030000 -0.180000
v 101.450000 -0.980000 -0.180000
v 101.400000 -0.980000 -0.180000
v 101.400000 -0.980000 -0.180000
v 101.450000 -0.980000 -0.180000
v 101.450000 -0.930000 -0.180000
v 101.400000 -0.930000 -0.180000
v 101.400000 -0.930000 -0.180000
v 101.450000 -0.930000 -0.180000
v 101.450000 -0.880000 -0.180000
v 101.400000 -0.880000 -0.180000
v 101.400000 -0.880000 -0.180000
v 101.450000 -0.880000 -0.180000
v 101.450000 -0.830000 -0.180000
v 101.400000 -0.830000 -0.180000
v 101.400000 -0.830000 -0.180000
v 101.450000 -0.830000 -0.180000
v 101.450000 -0.780000 -0.180000
v 101.400000 -0.780000 -0.180000
v 101.400000 -0.780000 -0.180000
v 101.450000 -0.780000 -0.180000
v 101.450000 -0.730000 -0.180000
v 101.400000 -0.730000 -0.180000
v 101.400000 -0.730000 -0.180000
v 101.450000 -0.730000 -0.180000
v 101.450000 -0.680000 -0.180000
v 101.400000 -0.680000 -0.180000
v 101.400000 -0.680000 -0.180000
v 101.450000 -0.680000 -0.180000
v 101.450000 -0.630000 -0.180000
v 101.400000 -0.630000 -0.180000
v 101.400000 -0.630000 -0.180000
v 101.450000 -0.630000 -0.180000
v 101.450000 -0.580000 -0.180000
v 101.400000 -0.580000 -0.180000
v 101.400000 -0.580000 -0.180000
v 101.450000 -0.580000 -0.180000
v 101.450000 -0.530000 -0.180000
v 101.400000 -0.530000 -0.180000
v 101.400000 -0.530000 -0.180000
v 101.450000 -0.530000 -0.180000
v 101.450000 -0.480000 -0.180000
v 101.400000 -0.480000 -0.180000
v 101.400000 -0.480000 -0.180000
v 101.450000 -0.480000 -0.180000
v 101.450000 -0.430000 -0.180000
v 101.400000 -0.430000 -0.180000
v 101.400000 -0.430000 -0.180000
v 101.450000 -0.430000 -0.180000
v 101.450000 -0.380000 -0.180000
v 101.400000 -0.380000 -0.180000
v 101.400000 -0.380000 -0.180000
v 101.450000 -0.380000 -0.180000
v 101.450000 -0.330000 -0.180000
v 101.400000 -0.330000 -0.180000
v 101.400000 -0.330000 -0.180000
v 101.450000 -0.330000 -0.180000
v 101.450000 -0.280000 -0.180000
v 101.400000 -0.280000 -0.180000
v 101.400000 -0.280000 -0.180000
v 101.450000 -0.280000 -0.180000
v 101.450000 -0.230000 -0.180000
v 101.400000 -0.230000 -0.180000
v 101.400000 -0.230000 -0.180000
v 101.450000 -0.230000 -0.180000
v 101.450000 -0.180000 0.020000
v 101.400000 -0.180000 0.020000
v 101.450000 -1.080000 0.020000
v 101.500000 -1.080000 0.020000
v 101.500000 -1.030000 -0.180000
v 101.450000 -1.030000 -0.180000
v 101.450000 -1.030000 -0.180000
v 101.500000 -1.030000 -0.180000
v 101.500000 -0.980000 -0.180000
v 101.450000 -0.980000 -0.180000
v 101.450000 -0.980000 -0.180000
v 101.500000 -0.980000 -0.180000
v 101.500000 -0.930000 -0.180000
v 101.450000 -0.930000 -0.180000
v 101.450000 -0.930000 -0.180000
v 101.500000 -0.930000 -0.180000
v 101.500000 -0.880000 -0.180000
v 101.450000 -0.880000 -0.180000
v 101.450000 -0.880000 -0.180000
v 101.500000 -0.880000 -0.180000
v 101.500000 -0.830000 -0.180000
v 101.450000 -0.830000 -0.180000
v 101.450000 -0.830000 -0.180000
v 101.500000 -0.830000 -0.180000
v 101.500000 -0.780000 -0.180000
v 101.450000 -0.780000 -0.180000
v 101.450000 -0.780000 -0.180000
v 101.500000 -0.780000 -0.180000
v 101.500000 -0.730000 -0.180000
v 101.450000 -0.730000 -0.180000
v 101.450000 -0.730000 -0.180000
v 101.500000 -0.730000 -0.180000
v 101.500000 -0.680000 -0.180000
v 101.450000 -0.680000 -0.180000
v 101.450000 -0.680000 -0.180000
v 101.500000 -0.680000 -0.180000
v 101.500000 -0.630000 -0.180000
v 101.450000 -0.630000 -0.180000
v 101.450000 -0.630000 -0.180000
v 101.500000 -0.630000 -0.180000
v 101.500000 -0.580000 -0.180000
v 101.450000 -0.580000 -0.180000
v 101.450000 -0.580000 -0.180000
v 101.500000 -0.580000 -0.180000
v 101.500000 -0.530000 -0.180000
v 101.450000 -0.530000 -0.180000
v 101.450000 -0.530000 -0.180000
v 101.500000 -0.530000 -0.180000
v 101.500000 -0.480000 -0.180000
v 101.450000 -0.480000 -0.180000
v 101.450000 -0.480000 -0.180000
v 101.500000 -0.480000 -0.180000
v 101.500000 -0.430000 -0.180000
v 101.450000 -0.430000 -0.180000
v 101.450000 -0.430000 -0.180000
v 101.500000 -0.430000 -0.180000
v 101.500000 -0.380000 -0.180000
v 101.450000 -0.380000 -0.180000
v 101.450000 -0.380000 -0.180000
v 101.500000 -0.380000 -0.180000
v 101.500000 -0.330000 -0.180000
v 101.450000 -0.330000 -0.180000
v 101.450000 -0.330000 -0.180000
v 101.500000 -0.330000 -0.180000
v 101.500000 -0.280000 -0.180000
v 101.450000 -0.280000 -0.180000
v 101.450000 -0.280000 -0.180000
v 101.500000 -0.280000 -0.180000
v 101.500000 -0.230000 -0.180000
v 101.450000 -0.230000 -0.180000
v 101.450000 -0.230000 -0.180000
v 101.500000 -0.230000 -0.180000
v 101.500000 -0.180000 0.020000
v 101.450000 -0.180000 0.020000
v 101.500000 -1.080000 0.020000
v 101.550000 -1.080000 0.020000
v 101.550000 -1.030000 -0.180000
v 101.500000 -1.030000 -0.180000
v 101.500000 -1.030000 -0.180000
v 101.550000 -1.030000 -0.180000
v 101.550000 -0.980000 -0.180000
v 101.500000 -0.980000 -0.180000
v 101.500000 -0.980000 -0.180000
v 101.550000 -0.980000 -0.180000
v 101.550000 -0.930000 -0.180000
v 101.500000 -0.930000 -0.180000
v 101.500000 -0.930000 -0.180000
v 101.550000 -0.930000 -0.180000
v 101.550000 -0.880000 -0.180000
v 101.500000 -0.880000 -0.180000
v 101.500000 -0.880000 -0.180000
v 101.550000 -0.880000 -0.180000
v 101.550000 -0.830000 -0.180000
v 101.500000 -0.830000 -0.180000
v 101.500000 -0.830000 -0.180000
v 101.550000 -0.830000 -0.180000
v 101.550000 -0.780000 -0.180000
v 101.500000 -0.780000 -0.180000
v 101.500000 -0.780000 -0.180000
v 101.550000 -0.780000 -0.180000
v 101.550000 -0.730000 -0.180000
v 101.500000 -0.730000 -0.180000
v 101.500000 -0.730000 -0.180000
v 101.550000 -0.730000 -0.180000
v 101.550000 -0.680000 -0.180000
v 101.500000 -0.680000 -0.180000
v 101.500000 -0.680000 -0.180000
v 101.550000 -0.680000 -0.180000
v 101.550000 -0.630000 -0.180000
v 101.500000 -0.630000 -0.180000
v 101.500000 -0.630000 -0.180000
v 101.550000 -0.630000 -0.180000
v 101.550000 -0.580000 -0.180000
v 101.500000 -0.580000 -0.180000
v 101.500000 -0.580000 -0.180000
v 101.550000 -0.580000 -0.180000
v 101.550000 -0.530000 -0.180000
v 101.500000 -0.530000 -0.180000
v 101.500000 -0.530000 -0.180000
v 101.550000 -0.530000 -0.180000
v 101.550000 -0.480000 -0.180000
v 101.500000 -0.480000 -0.180000
v 101.500000 -0.480000 -0.180000
v 101.550000 -0.480000 -0.180000
v 101.550000 -0.430000 -0.180000
v 101.500000 -0.430000 -0.180000
v 101.500000 -0.430000 -0.180000
v 101.550000 -0.430000 -0.180000
v 101.550000 -0.380000 -0.180000
v 101.500000 -0.380000 -0.180000
v 101.500000 -0.380000 -0.180000
v 101.550000 -0.380000 -0.180000
v 101.550000 -0.330000 -0.180000
v 101.500000 -0.330000 -0.180000
v 101.500000 -0.330000 -0.180000
v 101.550000 -0.330000 -0.180000
v 101.550000 -0.280000 -0.180000
v 101.500000 -0.280000 -0.180000
v 101.500000 -0.280000 -0.180000
v 101.550000 -0.280000 -0.180000
v 101.550000 -0.230000 -0.180000
v 101.500000 -0.230000 -0.180000
v 101.500000 -0.230000 -0.180000
v 101.550000 -0.230000 -0.180000
v 101.550000 -0.180000 0.020000
v 101.500000 -0.180000 0.020000
v 101.550000 -1.080000 0.020000
v 101.600000 -1.080000 0.020000
v 101.600000 -1.030000 -0.180000
v 101.550000 -1.030000 -0.180000
v 101.550000 -1.030000 -0.180000
v 101.600000 -1.030000 -0.180000
v 101.600000 -0.980000 -0.180000
v 101.550000 -0.980000 -0.180000
v 101.550000 -0.980000 -0.180000
v 101.600000 -0.980000 -0.180000
v 101.600000 -0.930000 -0.180000
v 101.550000 -0.930000 -0.180000
v 101.550000 -0.930000 -0.180000
v 101.600000 -0.930000 -0.180000
v 101.600000 -0.880000 -0.180000
v 101.550000 -0.880000 -0.180000
v 101.550000 -0.880000 -0.180000
v 101.600000 -0.880000 -0.180000
v 101.600000 -0.830000 -0.180000
v 101.550000 -0.830000 -0.180000
v 101.550000 -0.830000 -0.180000
v 101.600000 -0.830000 -0.180000
v 101.600000 -0.780000 -0.180000
v 101.550000 -0.780000 -0.180000
v 101.550000 -0.780000 -0.180000
v 101.600000 -0.780000 -0.180000
v 101.600000 -0.730000 -0.180000
v 101.550000 -0.730000 -0.180000
v 101.550000 -0.730000 -0.180000
v 101.600000 -0.730000 -0.180000
v 101.600000 -0.680000 -0.180000
v 101.550000 -0.680000 -0.180000
v 101.550000 -0.680000 -0.180000
v 101.600000 -0.680000 -0.180000
v 101.600000 -0.630000 -0.180000
v 101.550000 -0.630000 -0.180000
v 101.550000 -0.630000 -0.180000
v 101.600000 -0.630000 -0.180000
v 101.600000 -0.580000 -0.180000
v 101.550000 -0.580000 -0.180000
v 101.550000 -0.580000 -0.180000
v 101.600000 -0.580000 -0.180000
v 101.600000 -0.530000 -0.180000
v 101.550000 -0.530000 -0.180000
v 101.550000 -0.530000 -0.180000
v 101.600000 -0.530000 -0.180000
v 101.600000 -0.480000 -0.180000
v 101.550000 -0.480000 -0.180000
v 101.550000 -0.480000 -0.180000
v 101.600000 -0.480000 -0.180000
v 101.600000 -0.430000 -0.180000
v 101.550000 -0.430000 -0.180000
v 101.550000 -0.430000 -0.180000
v 101.600000 -0.430000 -0.180000
v 101.600000 -0.380000 -0.180000
v 101.550000 -0.380000 -0.180000
v 101.550000 -0.380000 -0.180000
v 101.600000 -0.380000 -0.180000
v 101.600000 -0.330000 -0.180000
v 101.550000 -0.330000 -0.180000
v 101.550000 -0.330000 -0.180000
v 101.600000 -0.330000 -0.180000
v 101.600000 -0.280000 -0.180000
v 101.550000 -0.280000 -0.180000
v 101.550000 -0.280000 -0.180000
v 101.600000 -0.280000 -0.180000
v 101.600000 -0.230000 -0.180000
v 101.550000 -0.230000 -0.180000
v 101.550000 -0.230000 -0.180000
v 101.600000 -0.230000 -0.180000
v 101.600000 -0.180000 0.020000
v 101.550000 -0.180000 0.020000
v 101.600000 -1.080000 0.020000
v 101.650000 -1.080000 0.020000
v 101.650000 -1.030000 -0.180000
v 101.600000 -1.030000 -0.180000
v 101.600000 -1.030000 -0.180000
v 101.650000 -1.030000 -0.180000
v 101.650000 -0.980000 -0.180000
v 101.600000 -0.980000 -0.180000
v 101.600000 -0.980000 -0.180000
v 101.650000 -0.980000 -0.180000
v 101.650000 -0.930000 -0.180000
v 101.600000 -0.930000 -0.180000
v 101.600000 -0.930000 -0.180000
v 101.650000 -0.930000 -0.180000
v 101.650000 -0.880000 -0.180000
v 101.600000 -0.880000 -0.180000
v 101.600000 -0.880000 -0.180000
v 101.650000 -0.880000 -0.180000
v 101.650000 -0.830000 -0.180000
v 101.600000 -0.830000 -0.180000
v 101.600000 -0.830000 -0.180000
v 101.650000 -0.830000 -0.180000
v 101.650000 -0.780000 -0.180000
v 101.600000 -0.780000 -0.180000
v 101.600000 -0.780000 -0.180000
v 101.650000 -0.780000 -0.180000
v 101.650000 -0.730000 -0.180000
v 101.600000 -0.730000 -0.180000
v 101.600000 -0.730000 -0.180000
v 101.650000 -0.730000 -0.180000
v 101.650000 -0.680000 -0.180000
v 101.600000 -0.680000 -0.180000
v 101.600000 -0.680000 -0.180000
v 101.650000 -0.680000 -0.180000
v 101.650000 -0.630000 -0.180000
v 101.600000 -0.630000 -0.180000
v 101.600000 -0.630000 -0.180000
v 101.650000 -0.630000 -0.180000
v 101.650000 -0.580000 -0.180000
v 101.600000 -0.580000 -0.180000
v 101.600000 -0.580000 -0.180000
v 101.650000 -0.580000 -0.180000
v 101.650000 -0.530000 -0.180000
v 101.600000 -0.530000 -0.180000
v 101.600000 -0.530000 -0.180000
v 101.650000 -0.530000 -0.180000
v 101.650000 -0.480000 -0.180000
v 101.600000 -0.480000 -0.180000
v 101.600000 -0.480000 -0.180000
v 101.650000 -0.480000 -0.180000
v 101.650000 -0.430000 -0.180000
v 101.600000 -0.430000 -0.180000
v 101.600000 -0.430000 -0.180000
v 101.650000 -0.430000 -0.180000
v 101.650000 -0.380000 -0.180000
v 101.600000 -0.380000 -0.180000
v 101.600000 -0.380000 -0.180000
v 101.650000 -0.380000 -0.180000
v 101.650000 -0.330000 -0.180000
v 101.600000 -0.330000 -0.180000
v 101.600000 -0.330000 -0.180000
v 101.650000 -0.330000 -0.180000
v 101.650000 -0.280000 -0.180000
v 101.600000 -0.280000 -0.180000
v 101.600000 -0.280000 -0.180000
v 101.650000 -0.280000 -0.180000
v 101.650000 -0.230000 -0.180000
v 101.600000 -0.230000 -0.180000
v 101.600000 -0.230000 -0.180000
v 101.650000 -0.230000 -0.180000
v 101.650000 -0.180000 0.020000
v 101.600000 -0.180000 0.020000
v 101.650000 -1.080000 0.020000
v 101.700000 -1.080000 0.020000
v 101.700000 -1.030000 -0.180000
v 101.650000 -1.030000 -0.180000
v 101.650000 -1.030000 -0.180000
v 101.700000 -1.030000 -0.180000
v 101.700000 -0.980000 -0.180000
v 101.650000 -0.980000 -0.180000
v 101.650000 -0.980000 -0.180000
v 101.700000 -0.980000 -0.180000
v 101.700000 -0.930000 -0.180000
v 101.650000 -0.930000 -0.180000
v 101.650000 -0.930000 -0.180000
v 101.700000 -0.930000 -0.180000
v 101.700000 -0.880000 -0.180000
v 101.650000 -0.880000 -0.180000
v 101.650000 -0.880000 -0.180000
v 101.700000 -0.880000 -0.180000
v 101.700000 -0.830000 -0.180000
v 101.650000 -0.830000 -0.180000
v 101.650000 -0.830000 -0.180000
v 101.700000 -0.830000 -0.180000
v 101.700000 -0.780000 -0.180000
v 101.650000 -0.780000 -0.180000
v 101.650000 -0.780000 -0.180000
v 101.700000 -0.780000 -0.180000
v 101.700000 -0.730000 -0.180000
v 101.650000 -0.730000 -0.180000
v 101.650000 -0.730000 -0.180000
v 101.700000 -0.730000 -0.180000
v 101.700000 -0.680000 -0.180000
v 101.650000 -0.680000 -0.180000
v 101.650000 -0.680000 -0.180000
v 101.700000 -0.680000 -0.180000
v 101.700000 -0.630000 -0.180000
v 101.650000 -0.630000 -0.180000
v 101.650000 -0.630000 -0.180000
v 101.700000 -0.630000 -0.180000
v 101.700000 -0.580000 -0.180000
v 101.650000 -0.580000 -0.180000
v 101.650000 -0.580000 -0.180000
v 101.700000 -0.580000 -0.180000
v 101.700000 -0.530000 -0.180000
v 101.650000 -0.530000 -0.180000
v 101.650000 -0.530000 -0.180000
v 101.700000 -0.530000 -0.180000
v 101.700000 -0.480000 -0.180000
v 101.650000 -0.480000 -0.180000
v 101.650000 -0.480000 -0.180000
v 101.700000 -0.480000 -0.180000
v 101.700000 -0.430000 -0.180000
v 101.650000 -0.430000 -0.180000
v 101.650000 -0.430000 -0.180000
v 101.700000 -0.430000 -0.180000
v 101.700000 -0.380000 -0.180000
v 101.650000 -0.380000 -0.180000
v 101.650000 -0.380000 -0.180000
v 101.700000 -0.380000 -0.180000
v 101.700000 -0.330000 -0.180000
v 101.650000 -0.330000 -0.180000
v 101.650000 -0.330000 -0.180000
v 101.700000 -0.330000 -0.180000
v 101.700000 -0.280000 -0.180000
v 101.650000 -0.280000 -0.180000
v 101.650000 -0.280000 -0.180000
v 101.700000 -0.280000 -0.180000
v 101.700000 -0.230000 -0.180000
v 101.650000 -0.230000 -0.180000
v 101.650000 -0.230000 -0.180000
v 101.700000 -0.230000 -0.180000
v 101.700000 -0.180000 0.020000
v 101.650000 -0.180000 0.020000
v 101.700000 -1.080000 0.020000
v 101.750000 -1.080000 0.020000
v 101.750000 -1.030000 -0.180000
v 101.700000 -1.030000 -0.180000
v 101.700000 -1.030000 -0.180000
v 101.750000 -1.030000 -0.180000
v 101.750000 -0.980000 -0.180000
v 101.700000 -0.980000 -0.180000
v 101.700000 -0.980000 -0.180000
v 101.750000 -0.980000 -0.180000
v 101.750000 -0.930000 -0.180000
v 101.700000 -0.930000 -0.180000
v 101.700000 -0.930000 -0.180000
v 101.750000 -0.930000 -0.180000
v 101.750000 -0.880000 -0.180000
v 101.700000 -0.880000 -0.180000
v 101.700000 -0.880000 -0.180000
v 101.750000 -0.880000 -0.180000
v 101.750000 -0.830000 -0.180000
v 101.700000 -0.830000 -0.180000
v 101.700000 -0.830000 -0.180000
v 101.750000 -0.830000 -0.180000
v 101.750000 -0.780000 -0.180000
v 101.700000 -0.780000 -0.180000
v 101.700000 -0.780000 -0.180000
v 101.750000 -0.780000 -0.180000
v 101.750000 -0.730000 -0.180000
v 101.700000 -0.730000 -0.180000
v 101.700000 -0.730000 -0.180000
v 101.750000 -0.730000 -0.180000
v 101.750000 -0.680000 -0.180000
v 101.700000 -0.680000 -0.180000
v 101.700000 -0.680000 -0.180000
v 101.750000 -0.680000 -0.180000
v 101.750000 -0.630000 -0.180000
v 101.700000 -0.630000 -0.180000
v 101.700000 -0.630000 -0.180000
v 101.750000 -0.630000 -0.180000
v 101.750000 -0.580000 -0.180000
v 101.700000 -0.580000 -0.180000
v 101.700000 -0.580000 -0.180000
v 101.750000 -0.580000 -0.180000
v 101.750000 -0.530000 -0.180000
v 101.700000 -0.530000 -0.180000
v 101.700000 -0.530000 -0.180000
v 101.750000 -0.530000 -0.180000
v 101.750000 -0.480000 -0.180000
v 101.700000 -0.480000 -0.180000
v 101.700000 -0.480000 -0.180000
v 101.750000 -0.480000 -0.180000
v 101.750000 -0.430000 -0.180000
v 101.700000 -0.430000 -0.180000
v 101.700000 -0.430000 -0.180000
v 101.750000 -0.430000 -0.180000
v 101.750000 -0.380000 -0.180000
v 101.700000 -0.380000 -0.180000
v 101.700000 -0.380000 -0.180000
v 101.750000 -0.380000 -0.180000
v 101.750000 -0.330000 -0.180000
v 101.700000 -0.330000 -0.180000
v 101.700000 -0.330000 -0.180000
v 101.750000 -0.330000 -0.180000
v 101.750000 -0.280000 -0.180000
v 101.700000 -0.280000 -0.180000
v 101.700000 -0.280000 -0.180000
v 101.750000 -0.280000 -0.180000
v 101.750000 -0.230000 -0.180000
v 101.700000 -0.230000 -0.180000
v 101.700000 -0.230000 -0.180000
v 101.750000 -0.230000 -0.180000
v 101.750000 -0.180000 0.020000
v 101.700000 -0.180000 0.020000
v 101.750000 -1.080000 0.020000
v 101.800000 -1.080000 0.020000
v 101.800000 -1.030000 -0.180000
v 101.750000 -1.030000 -0.180000
v 101.750000 -1.030000 -0.180000
v 101.800000 -1.030000 -0.180000
v 101.800000 -0.980000 -0.180000
v 101.750000 -0.980000 -0.180000
v 101.750000 -0.980000 -0.180000
v 101.800000 -0.980000 -0.180000
v 101.800000 -0.930000 -0.180000
v 101.750000 -0.930000 -0.180000
v 101.750000 -0.930000 -0.180000
v 101.800000 -0.930000 -0.180000
v 101.800000 -0.880000 -0.180000
v 101.750000 -0.880000 -0.180000
v 101.750000 -0.880000 -0.180000
v 101.800000 -0.880000 -0.180000
v 101.800000 -0.830000 -0.180000
v 101.750000 -0.830000 -0.180000
v 101.750000 -0.830000 -0.180000
v 101.800000 -0.830000 -0.180000
v 101.800000 -0.780000 -0.180000
v 101.750000 -0.780000 -0.180000
v 101.750000 -0.780000 -0.180000
v 101.800000 -0.780000 -0.180000
v 101.800000 -0.730000 -0.180000
v 101.750000 -0.730000 -0.180000
v 101.750000 -0.730000 -0.180000
v 101.800000 -0.730000 -0.180000
v 101.800000 -0.680000 -0.180000
v 101.750000 -0.680000 -0.180000
v 101.750000 -0.680000 -0.180000
v 101.800000 -0.680000 -0.180000
v 101.800000 -0.630000 -0.180000
v 101.750000 -0.630000 -0.180000
v 101.750000 -0.630000 -0.180000
v 101.800000 -0.630000 -0.180000
v 101.800000 -0.580000 -0.180000
v 101.750000 -0.580000 -0.180000
v 101.750000 -0.580000 -0.180000
v 101.800000 -0.580000 -0.180000
v 101.800000 -0.530000 -0.180000
v 101.750000 -0.530000 -0.180000
v 101.750000 -0.530000 -0.180000
v 101.800000 -0.530000 -0.180000
v 101.800000 -0.480000 -0.180000
v 101.750000 -0.480000 -0.180000
v 101.750000 -0.480000 -0.180000
v 101.800000 -0.480000 -0.180000
v 101.800000 -0.430000 -0.180000
v 101.750000 -0.430000 -0.180000
v 101.750000 -0.430000 -0.180000
v 101.800000 -0.430000 -0.180000
v 101.800000 -0.380000 -0.180000
v 101.750000 -0.380000 -0.180000
v 101.750000 -0.380000 -0.180000
v 101.800000 -0.380000 -0.180000
v 101.800000 -0.330000 -0.180000
v 101.750000 -0.330000 -0.180000
v 101.750000 -0.330000 -0.180000
v 101.800000 -0.330000 -0.180000
v 101.800000 -0.280000 -0.180000
v 101.750000 -0.280000 -0.180000
v 101.750000 -0.280000 -0.180000
v 101.800000 -0.280000 -0.180000
v 101.800000 -0.230000 -0.180000
v 101.750000 -0.230000 -0.180000
v 101.750000 -0.230000 -0.180000
v 101.800000 -0.230000 -0.180000
v 101.800000 -0.180000 0.020000
v 101.750000 -0.180000 0.020000
v 101.800000 -1.080000 0.020000
v 101.850000 -1.080000 0.020000
v 101.850000 -1.030000 -0.180000
v 101.800000 -1.030000 -0.180000
v 101.800000 -1.030000 -0.180000
v 101.850000 -1.030000 -0.180000
v 101.850000 -0.980000 -0.180000
v 101.800000 -0.980000 -0.180000
v 101.800000 -0.980000 -0.180000
v 101.850000 -0.980000 -0.180000
v 101.850000 -0.930000 -0.180000
v 101.800000 -0.930000 -0.180000
v 101.800000 -0.930000 -0.180000
v 101.850000 -0.930000 -0.180000
v 101.850000 -0.880000 -0.180000
v 101.800000 -0.880000 -0.180000
v 101.800000 -0.880000 -0.180000
v 101.850000 -0.880000 -0.180000
v 101.850000 -0.830000 -0.180000
v 101.800000 -0.830000 -0.180000
v 101.800000 -0.830000 -0.180000
v 101.850000 -0.830000 -0.180000
v 101.850000 -0.780000 -0.180000
v 101.800000 -0.780000 -0.180000
v 101.800000 -0.780000 -0.180000
v 101.850000 -0.780000 -0.180000
v 101.850000 -0.730000 -0.180000
v 101.800000 -0.730000 -0.180000
v 101.800000 -0.730000 -0.180000
v 101.850000 -0.730000 -0.180000
v 101.850000 -0.680000 -0.180000
v 101.800000 -0.680000 -0.180000
v 101.800000 -0.680000 -0.180000
v 101.850000 -0.680000 -0.180000
v 101.850000 -0.630000 -0.180000
v 101.800000 -0.630000 -0.180000
v 101.800000 -0.630000 -0.180000
v 101.850000 -0.630000 -0.180000
v 101.850000 -0.580000 -0.180000
v 101.800000 -0.580000 -0.180000
v 101.800000 -0.580000 -0.180000
v 101.850000 -0.580000 -0.180000
v 101.850000 -0.530000 -0.180000
v 101.800000 -0.530000 -0.180000
v 101.800000 -0.530000 -0.180000
v 101.850000 -0.530000 -0.180000
v 101.850000 -0.480000 -0.180000
v 101.800000 -0.480000 -0.180000
v 101.800000 -0.480000 -0.180000
v 101.850000 -0.480000 -0.180000
v 101.850000 -0.430000 -0.180000
v 101.800000 -0.430000 -0.180000
v 101.800000 -0.430000 -0.180000
v 101.850000 -0.430000 -0.180000
v 101.850000 -0.380000 -0.180000
v 101.800000 -0.380000 -0.180000
v 101.800000 -0.380000 -0.180000
v 101.850000 -0.380000 -0.180000
v 101.850000 -0.330000 -0.180000
v 101.800000 -0.330000 -0.180000
v 101.800000 -0.330000 -0.180000
v 101.850000 -0.330000 -0.180000
v 101.850000 -0.280000 -0.180000
v 101.800000 -0.280000 -0.180000
v 101.800000 -0.280000 -0.180000
v 101.850000 -0.280000 -0.180000
v 101.850000 -0.230000 -0.180000
v 101.800000 -0.230000 -0.180000
v 101.800000 -0.230000 -0.180000
v 101.850000 -0.230000 -0.180000
v 101.850000 -0.180000 0.020000
v 101.800000 -0.180000 0.020000
v 101.850000 -1.080000 0.020000
v 101.900000 -1.080000 0.020000
v 101.900000 -1.030000 0.020000
v 101.850000 -1.030000 -0.180000
v 101.850000 -1.030000 -0.180000
v 101.900000 -1.030000 0.020000
v 101.900000 -0.980000 0.020000
v 101.850000 -0.980000 -0.180000
v 101.850000 -0.980000 -0.180000
v 101.900000 -0.980000 0.020000
v 101.900000 -0.930000 0.020000
v 101.850000 -0.930000 -0.180000
v 101.850000 -0.930000 -0.180000
v 101.900000 -0.930000 0.020000
v 101.900000 -0.880000 0.020000
v 101.850000 -0.880000 -0.180000
v 101.850000 -0.880000 -0.180000
v 101.900000 -0.880000 0.020000
v 101.900000 -0.830000 0.020000
v 101.850000 -0.830000 -0.180000
v 101.850000 -0.830000 -0.180000
v 101.900000 -0.830000 0.020000
v 101.900000 -0.780000 0.020000
v 101.850000 -0.780000 -0.180000
v 101.850000 -0.780000 -0.180000
v 101.900000 -0.780000 0.020000
v 101.900000 -0.730000 0.020000
v 101.850000 -0.730000 -0.180000
v 101.850000 -0.730000 -0.180000
v 101.900000 -0.730000 0.020000
v 101.900000 -0.680000 0.020000
v 101.850000 -0.680000 -0.180000
v 101.850000 -0.680000 -0.180000
v 101.900000 -0.680000 0.020000
v 101.900000 -0.630000 0.020000
v 101.850000 -0.630000 -0.180000
v 101.850000 -0.630000 -0.180000
v 101.900000 -0.630000 0.020000
v 101.900000 -0.580000 0.020000
v 101.850000 -0.580000 -0.180000
v 101.850000 -0.580000 -0.180000
v 101.900000 -0.580000 0.020000
v 101.900000 -0.530000 0.020000
v 101.850000 -0.530000 -0.180000
v 101.850000 -0.530000 -0.180000
v 101.900000 -0.530000 0.020000
v 101.900000 -0.480000 0.020000
v 101.850000 -0.480000 -0.180000
v 101.850000 -0.480000 -0.180000
v 101.900000 -0.480000 0.020000
v 101.900000 -0.430000 0.020000
v 101.850000 -0.430000 -0.180000
v 101.850000 -0.430000 -0.180000
v 101.900000 -0.430000 0.020000
v 101.900000 -0.380000 0.020000
v 101.850000 -0.380000 -0.180000
v 101.850000 -0.380000 -0.180000
v 101.900000 -0.380000 0.020000
v 101.900000 -0.330000 0.020000
v 101.850000 -0.330000 -0.180000
v 101.850000 -0.330000 -0.180000
v 101.900000 -0.330000 0.020000
v 101.900000 -0.280000 0.020000
v 101.850000 -0.280000 -0.180000
v 101.850000 -0.280000 -0.180000
v 101.900000 -0.280000 0.020000
v 101.900000 -0.230000 0.020000
v 101.850000 -0.230000 -0.180000
v 101.850000 -0.230000 -0.180000
v 101.900000 -0.230000 0.020000
v 101.900000 -0.180000 0.020000
v 101.850000 -0.180000 0.020000
vt 0.041667 0.050000
vt 0.000000 0.050000
vt 0.000000 0.950000
vt 0.041667 0.950000
vt 0.083333 0.050000
vt 0.041667 0.050000
vt 0.041667 0.950000
vt 0.083333 0.950000
vt 0.125000 0.050000
vt 0.083333 0.050000
vt 0.083333 0.950000
vt 0.125000 0.950000
vt 0.166667 0.050000
vt 0.125000 0.050000
vt 0.125000 0.950000
vt 0.166667 0.950000
vt 0.208333 0.050000
vt 0.166667 0.050000
vt 0.166667 0.950000
vt 0.208333 0.950000
vt 0.250000 0.050000
vt 0.208333 0.050000
vt 0.208333 0.950000
vt 0.250000 0.950000
vt 0.291667 0.050000
vt 0.250000 0.050000
vt 0.250000 0.950000
vt 0.291667 0.950000
vt 0.333333 0.050000
vt 0.291667 0.050000
vt 0.291667 0.950000
vt 0.333333 0.950000
vt 0.375000 0.050000
vt 0.333333 0.050000
vt 0.333333 0.950000
vt 0.375000 0.950000
vt 0.416667 0.050000
vt 0.375000 0.050000
vt 0.375000 0.950000
vt 0.416667 0.950000
vt 0.458333 0.050000
vt 0.416667 0.050000
vt 0.416667 0.950000
vt 0.458333 0.950000
vt 0.500000 0.050000
vt 0.458333 0.050000
vt 0.458333 0.950000
vt 0.500000 0.950000
vt 0.541667 0.050000
vt 0.500000 0.050000
vt 0.500000 0.950000
vt 0.541667 0.950000
vt 0.583333 0.050000
vt 0.541667 0.050000
vt 0.541667 0.950000
vt 0.583333 0.950000
vt 0.625000 0.050000
vt 0.583333 0.050000
vt 0.583333 0.950000
vt 0.625000 0.950000
vt 0.666667 0.050000
vt 0.625000 0.050000
vt 0.625000 0.950000
vt 0.666667 0.950000
vt 0.708333 0.050000
vt 0.666667 0.050000
vt 0.666667 0.950000
vt 0.708333 0.950000
vt 0.750000 0.050000
vt 0.708333 0.050000
vt 0.708333 0.950000
vt 0.750000 0.950000
vt 0.791667 0.050000
vt 0.750000 0.050000
vt 0.750000 0.950000
vt 0.791667 0.950000
vt 0.833333 0.050000
vt 0.791667 0.050000
vt 0.791667 0.950000
vt 0.833333 0.950000
vt 0.875000 0.050000
vt 0.833333 0.050000
vt 0.833333 0.950000
vt 0.875000 0.950000
vt 0.916667 0.050000
vt 0.875000 0.050000
vt 0.875000 0.950000
vt 0.916667 0.950000
vt 0.958333 0.050000
vt 0.916667 0.050000
vt 0.916667 0.950000
vt 0.958333 0.950000
vt 1.000000 0.050000
vt 0.958333 0.050000
vt 0.958333 0.950000
vt 1.000000 0.950000
vt 21.525000 -50.000000
vt 36.725000 -50.000000
vt 36.725000 -1.250000
vt 21.525000 -1.250000
vt 21.525000 1.250000
vt 36.725000 1.250000
vt 36.725000 50.000000
vt 21.525000 50.000000
vt 43.050000 -2.500000
vt 50.550000 -2.500000
vt 50.550000 2.500000
vt 43.050000 2.500000
vt 50.950000 -2.500000
vt 73.450000 -2.500000
vt 73.450000 2.500000
vt 50.950000 2.500000
vt 50.550000 -2.500000
vt 50.950000 -2.500000
vt 50.950000 -0.540000
vt 50.550000 -0.540000
vt 50.550000 -0.090000
vt 50.950000 -0.090000
vt 50.950000 2.500000
vt 50.550000 2.500000
vt 202.200000 -2.160000
vt 202.300000 -2.160000
vt 202.300000 -2.060000
vt 202.200000 -2.060000
vt 202.200000 -2.060000
vt 202.300000 -2.060000
vt 202.300000 -1.960000
vt 202.200000 -1.960000
vt 202.200000 -1.960000
vt 202.300000 -1.960000
vt 202.300000 -1.860000
vt 202.200000 -1.860000
vt 202.200000 -1.860000
vt 202.300000 -1.860000
vt 202.300000 -1.760000
vt 202.200000 -1.760000
vt 202.200000 -1.760000
vt 202.300000 -1.760000
vt 202.300000 -1.660000
vt 202.200000 -1.660000
vt 202.200000 -1.660000
vt 202.300000 -1.660000
vt 202.300000 -1.560000
vt 202.200000 -1.560000
vt 202.200000 -1.560000
vt 202.300000 -1.560000
vt 202.300000 -1.460000
vt 202.200000 -1.460000
vt 202.200000 -1.460000
vt 202.300000 -1.460000
vt 202.300000 -1.360000
vt 202.200000 -1.360000
vt 202.200000 -1.360000
vt 202.300000 -1.360000
vt 202.300000 -1.260000
vt 202.200000 -1.260000
vt 202.200000 -1.260000
vt 202.300000 -1.260000
vt 202.300000 -1.160000
vt 202.200000 -1.160000
vt 202.200000 -1.160000
vt 202.300000 -1.160000
vt 202.300000 -1.060000
vt 202.200000 -1.060000
vt 202.200000 -1.060000
vt 202.300000 -1.060000
vt 202.300000 -0.960000
vt 202.200000 -0.960000
vt 202.200000 -0.960000
vt 202.300000 -0.960000
vt 202.300000 -0.860000
vt 202.200000 -0.860000
vt 202.200000 -0.860000
vt 202.300000 -0.860000
vt 202.300000 -0.760000
vt 202.200000 -0.760000
vt 202.200000 -0.760000
vt 202.300000 -0.760000
vt 202.300000 -0.660000
vt 202.200000 -0.660000
vt 202.200000 -0.660000
vt 202.300000 -0.660000
vt 202.300000 -0.560000
vt 202.200000 -0.560000
vt 202.200000 -0.560000
vt 202.300000 -0.560000
vt 202.300000 -0.460000
vt 202.200000 -0.460000
vt 202.200000 -0.460000
vt 202.300000 -0.460000
vt 202.300000 -0.360000
vt 202.200000 -0.360000
vt 202.300000 -2.160000
vt 202.400000 -2.160000
vt 202.400000 -2.060000
vt 202.300000 -2.060000
vt 202.300000 -2.060000
vt 202.400000 -2.060000
vt 202.400000 -1.960000
vt 202.300000 -1.960000
vt 202.300000 -1.960000
vt 202.400000 -1.960000
vt 202.400000 -1.860000
vt 202.300000 -1.860000
vt 202.300000 -1.860000
vt 202.400000 -1.860000
vt 202.400000 -1.760000
vt 202.300000 -1.760000
vt 202.300000 -1.760000
vt 202.400000 -1.760000
vt 202.400000 -1.660000
vt 202.300000 -1.660000
vt 202.300000 -1.660000
vt 202.400000 -1.660000
vt 202.400000 -1.560000
vt 202.300000 -1.560000
vt 202.300000 -1.560000
vt 202.400000 -1.560000
vt 202.400000 -1.460000
vt 202.300000 -1.460000
vt 202.300000 -1.460000
vt 202.400000 -1.460000
vt 202.400000 -1.360000
vt 202.300000 -1.360000
vt 202.300000 -1.360000
vt 202.400000 -1.360000
vt 202.400000 -1.260000
vt 202.300000 -1.260000
vt 202.300000 -1.260000
vt 202.400000 -1.260000
vt 202.400000 -1.160000
vt 202.300000 -1.160000
vt 202.300000 -1.160000
vt 202.400000 -1.160000
vt 202.400000 -1.060000
vt 202.300000 -1.060000
vt 202.300000 -1.060000
vt 202.400000 -1.060000
vt 202.400000 -0.960000
vt 202.300000 -0.960000
vt 202.300000 -0.960000
vt 202.400000 -0.960000
vt 202.400000 -0.860000
vt 202.300000 -0.860000
vt 202.300000 -0.860000
vt 202.400000 -0.860000
vt 202.400000 -0.760000
vt 202.300000 -0.760000
vt 202.300000 -0.760000
vt 202.400000 -0.760000
vt 202.400000 -0.660000
vt 202.300000 -0.660000
vt 202.300000 -0.660000
vt 202.400000 -0.660000
vt 202.400000 -0.560000
vt 202.300000 -0.560000
vt 202.300000 -0.560000
vt 202.400000 -0.560000
vt 202.400000 -0.460000
vt 202.300000 -0.460000
vt 202.300000 -0.460000
vt 202.400000 -0.460000
vt 202.400000 -0.360000
vt 202.300000 -0.360000
vt 202.400000 -2.160000
vt 202.500000 -2.160000
vt 202.500000 -2.060000
vt 202.400000 -2.060000
vt 202.400000 -2.060000
vt 202.500000 -2.060000
vt 202.500000 -1.960000
vt 202.400000 -1.960000
vt 202.400000 -1.960000
vt 202.500000 -1.960000
vt 202.500000 -1.860000
vt 202.400000 -1.860000
vt 202.400000 -1.860000
vt 202.500000 -1.860000
vt 202.500000 -1.760000
vt 202.400000 -1.760000
vt 202.400000 -1.760000
vt 202.500000 -1.760000
vt 202.500000 -1.660000
vt 202.400000 -1.660000
vt 202.400000 -1.660000
vt 202.500000 -1.660000
vt 202.500000 -1.560000
vt 202.400000 -1.560000
vt 202.400000 -1.560000
vt 202.500000 -1.560000
vt 202.500000 -1.460000
vt 202.400000 -1.460000
vt 202.400000 -1.460000
vt 202.500000 -1.460000
vt 202.500000 -1.360000
vt 202.400000 -1.360000
vt 202.400000 -1.360000
vt 202.500000 -1.360000
vt 202.500000 -1.260000
vt 202.400000 -1.260000
vt 202.400000 -1.260000
vt 202.500000 -1.260000
vt 202.500000 -1.160000
vt 202.400000 -1.160000
vt 202.400000 -1.160000
vt 202.500000 -1.160000
vt 202.500000 -1.060000
vt 202.400000 -1.060000
vt 202.400000 -1.060000
vt 202.500000 -1.060000
vt 202.500000 -0.960000
vt 202.400000 -0.960000
vt 202.400000 -0.960000
vt 202.500000 -0.960000
vt 202.500000 -0.860000
vt 202.400000 -0.860000
vt 202.400000 -0.860000
vt 202.500000 -0.860000
vt 202.500000 -0.760000
vt 202.400000 -0.760000
vt 202.400000 -0.760000
vt 202.500000 -0.760000
vt 202.500000 -0.660000
vt 202.400000 -0.660000
vt 202.400000 -0.660000
vt 202.500000 -0.660000
vt 202.500000 -0.560000
vt 202.400000 -0.560000
vt 202.400000 -0.560000
vt 202.500000 -0.560000
vt 202.500000 -0.460000
vt 202.400000 -0.460000
vt 202.400000 -0.460000
vt 202.500000 -0.460000
vt 202.500000 -0.360000
vt 202.400000 -0.360000
vt 202.500000 -2.160000
vt 202.600000 -2.160000
vt 202.600000 -2.060000
vt 202.500000 -2.060000
vt 202.500000 -2.060000
vt 202.600000 -2.060000
vt 202.600000 -1.960000
vt 202.500000 -1.960000
vt 202.500000 -1.960000
vt 202.600000 -1.960000
vt 202.600000 -1.860000
vt 202.500000 -1.860000
vt 202.500000 -1.860000
vt 202.600000 -1.860000
vt 202.600000 -1.760000
vt 202.500000 -1.760000
vt 202.500000 -1.760000
vt 202.600000 -1.760000
vt 202.600000 -1.660000
vt 202.500000 -1.660000
vt 202.500000 -1.660000
vt 202.600000 -1.660000
vt 202.600000 -1.560000
vt 202.500000 -1.560000
vt 202.500000 -1.560000
vt 202.600000 -1.560000
vt 202.600000 -1.460000
vt 202.500000 -1.460000
vt 202.500000 -1.460000
vt 202.600000 -1.460000
vt 202.600000 -1.360000
vt 202.500000 -1.360000
vt 202.500000 -1.360000
vt 202.600000 -1.360000
vt 202.600000 -1.260000
vt 202.500000 -1.260000
vt 202.500000 -1.260000
vt 202.600000 -1.260000
vt 202.600000 -1.160000
vt 202.500000 -1.160000
vt 202.500000 -1.160000
vt 202.600000 -1.160000
vt 202.600000 -1.060000
vt 202.500000 -1.060000
vt 202.500000 -1.060000
vt 202.600000 -1.060000
vt 202.600000 -0.960000
vt 202.500000 -0.960000
vt 202.500000 -0.960000
vt 202.600000 -0.960000
vt 202.600000 -0.860000
vt 202.500000 -0.860000
vt 202.500000 -0.860000
vt 202.600000 -0.860000
vt 202.600000 -0.760000
vt 202.500000 -0.760000
vt 202.500000 -0.760000
vt 202.600000 -0.760000
vt 202.600000 -0.660000
vt 202.500000 -0.660000
vt 202.500000 -0.660000
vt 202.600000 -0.660000
vt 202.600000 -0.560000
vt 202.500000 -0.560000
vt 202.500000 -0.560000
vt 202.600000 -0.560000
vt 202.600000 -0.460000
vt 202.500000 -0.460000
vt 202.500000 -0.460000
vt 202.600000 -0.460000
vt 202.600000 -0.360000
vt 202.500000 -0.360000
vt 202.600000 -2.160000
vt 202.700000 -2.160000
vt 202.700000 -2.060000
vt 202.600000 -2.060000
vt 202.600000 -2.060000
vt 202.700000 -2.060000
vt 202.700000 -1.960000
vt 202.600000 -1.960000
vt 202.600000 -1.960000
vt 202.700000 -1.960000
vt 202.700000 -1.860000
vt 202.600000 -1.860000
vt 202.600000 -1.860000
vt 202.700000 -1.860000
vt 202.700000 -1.760000
vt 202.600000 -1.760000
vt 202.600000 -1.760000
vt 202.700000 -1.760000
vt 202.700000 -1.660000
vt 202.600000 -1.660000
vt 202.600000 -1.660000
vt 202.700000 -1.660000
vt 202.700000 -1.560000
vt 202.600000 -1.560000
vt 202.600000 -1.560000
vt 202.700000 -1.560000
vt 202.700000 -1.460000
vt 202.600000 -1.460000
vt 202.600000 -1.460000
vt 202.700000 -1.460000
vt 202.700000 -1.360000
vt 202.600000 -1.360000
vt 202.600000 -1.360000
vt 202.700000 -1.360000
vt 202.700000 -1.260000
vt 202.600000 -1.260000
vt 202.600000 -1.260000
vt 202.700000 -1.260000
vt 202.700000 -1.160000
vt 202.600000 -1.160000
vt 202.600000 -1.160000
vt 202.700000 -1.160000
vt 202.700000 -1.060000
vt 202.600000 -1.060000
vt 202.600000 -1.060000
vt 202.700000 -1.060000
vt 202.700000 -0.960000
vt 202.600000 -0.960000
vt 202.600000 -0.960000
vt 202.700000 -0.960000
vt 202.700000 -0.860000
vt 202.600000 -0.860000
vt 202.600000 -0.860000
vt 202.700000 -0.860000
vt 202.700000 -0.760000
vt 202.600000 -0.760000
vt 202.600000 -0.760000
vt 202.700000 -0.760000
vt 202.700000 -0.660000
vt 202.600000 -0.660000
vt 202.600000 -0.660000
vt 202.700000 -0.660000
vt 202.700000 -0.560000
vt 202.600000 -0.560000
vt 202.600000 -0.560000
vt 202.700000 -0.560000
vt 202.700000 -0.460000
vt 202.600000 -0.460000
vt 202.600000 -0.460000
vt 202.700000 -0.460000
vt 202.700000 -0.360000
vt 202.600000 -0.360000
vt 202.700000 -2.160000
vt 202.800000 -2.160000
vt 202.800000 -2.060000
vt 202.700000 -2.060000
vt 202.700000 -2.060000
vt 202.800000 -2.060000
vt 202.800000 -1.960000
vt 202.700000 -1.960000
vt 202.700000 -1.960000
vt 202.800000 -1.960000
vt 202.800000 -1.860000
vt 202.700000 -1.860000
vt 202.700000 -1.860000
vt 202.800000 -1.860000
vt 202.800000 -1.760000
vt 202.700000 -1.760000
vt 202.700000 -1.760000
vt 202.800000 -1.760000
vt 202.800000 -1.660000
vt 202.700000 -1.660000
vt 202.700000 -1.660000
vt 202.800000 -1.660000
vt 202.800000 -1.560000
vt 202.700000 -1.560000
vt 202.700000 -1.560000
vt 202.800000 -1.560000
vt 202.800000 -1.460000
vt 202.700000 -1.460000
vt 202.700000 -1.460000
vt 202.800000 -1.460000
vt 202.800000 -1.360000
vt 202.700000 -1.360000
vt 202.700000 -1.360000
vt 202.800000 -1.360000
vt 202.800000 -1.260000
vt 202.700000 -1.260000
vt 202.700000 -1.260000
vt 202.800000 -1.260000
vt 202.800000 -1.160000
vt 202.700000 -1.160000
vt 202.700000 -1.160000
vt 202.800000 -1.160000
vt 202.800000 -1.060000
vt 202.700000 -1.060000
vt 202.700000 -1.060000
vt 202.800000 -1.060000
vt 202.800000 -0.960000
vt 202.700000 -0.960000
vt 202.700000 -0.960000
vt 202.800000 -0.960000
vt 202.800000 -0.860000
vt 202.700000 -0.860000
vt 202.700000 -0.860000
vt 202.800000 -0.860000
vt 202.800000 -0.760000
vt 202.700000 -0.760000
vt 202.700000 -0.760000
vt 202.800000 -0.760000
vt 202.800000 -0.660000
vt 202.700000 -0.660000
vt 202.700000 -0.660000
vt 202.800000 -0.660000
vt 202.800000 -0.560000
vt 202.700000 -0.560000
vt 202.700000 -0.560000
vt 202.800000 -0.560000
vt 202.800000 -0.460000
vt 202.700000 -0.460000
vt 202.700000 -0.460000
vt 202.800000 -0.460000
vt 202.800000 -0.360000
vt 202.700000 -0.360000
vt 202.800000 -2.160000
vt 202.900000 -2.160000
vt 202.900000 -2.060000
vt 202.800000 -2.060000
vt 202.800000 -2.060000
vt 202.900000 -2.060000
vt 202.900000 -1.960000
vt 202.800000 -1.960000
vt 202.800000 -1.960000
vt 202.900000 -1.960000
vt 202.900000 -1.860000
vt 202.800000 -1.860000
vt 202.800000 -1.860000
vt 202.900000 -1.860000
vt 202.900000 -1.760000
vt 202.800000 -1.760000
vt 202.800000 -1.760000
vt 202.900000 -1.760000
vt 202.900000 -1.660000
vt 202.800000 -1.660000
vt 202.800000 -1.660000
vt 202.900000 -1.660000
vt 202.900000 -1.560000
vt 202.800000 -1.560000
vt 202.800000 -1.560000
vt 202.900000 -1.560000
vt 202.900000 -1.460000
vt 202.800000 -1.460000
vt 202.800000 -1.460000
vt 202.900000 -1.460000
vt 202.900000 -1.360000
vt 202.800000 -1.360000
vt 202.800000 -1.360000
vt 202.900000 -1.360000
vt 202.900000 -1.260000
vt 202.800000 -1.260000
vt 202.800000 -1.260000
vt 202.900000 -1.260000
vt 202.900000 -1.160000
vt 202.800000 -1.160000
vt 202.800000 -1.160000
vt 202.900000 -1.160000
vt 202.900000 -1.060000
vt 202.800000 -1.060000
vt 202.800000 -1.060000
vt 202.900000 -1.060000
vt 202.900000 -0.960000
vt 202.800000 -0.960000
vt 202.800000 -0.960000
vt 202.900000 -0.960000
vt 202.900000 -0.860000
vt 202.800000 -0.860000
vt 202.800000 -0.860000
vt 202.900000 -0.860000
vt 202.900000 -0.760000
vt 202.800000 -0.760000
vt 202.800000 -0.760000
vt 202.900000 -0.760000
vt 202.900000 -0.660000
vt 202.800000 -0.660000
vt 202.800000 -0.660000
vt 202.900000 -0.660000
vt 202.900000 -0.560000
vt 202.800000 -0.560000
vt 202.800000 -0.560000
vt 202.900000 -0.560000
vt 202.900000 -0.460000
vt 202.800000 -0.460000
vt 202.800000 -0.460000
vt 202.900000 -0.460000
vt 202.900000 -0.360000
vt 202.800000 -0.360000
vt 202.900000 -2.160000
vt 203.000000 -2.160000
vt 203.000000 -2.060000
vt 202.900000 -2.060000
vt 202.900000 -2.060000
vt 203.000000 -2.060000
vt 203.000000 -1.960000
vt 202.900000 -1.960000
vt 202.900000 -1.960000
vt 203.000000 -1.960000
vt 203.000000 -1.860000
vt 202.900000 -1.860000
vt 202.900000 -1.860000
vt 203.000000 -1.860000
vt 203.000000 -1.760000
vt 202.900000 -1.760000
vt 202.900000 -1.760000
vt 203.000000 -1.760000
vt 203.000000 -1.660000
vt 202.900000 -1.660000
vt 202.900000 -1.660000
vt 203.000000 -1.660000
vt 203.000000 -1.560000
vt 202.900000 -1.560000
vt 202.900000 -1.560000
vt 203.000000 -1.560000
vt 203.000000 -1.460000
vt 202.900000 -1.460000
vt 202.900000 -1.460000
vt 203.000000 -1.460000
vt 203.000000 -1.360000
vt 202.900000 -1.360000
vt 202.900000 -1.360000
vt 203.000000 -1.360000
vt 203.000000 -1.260000
vt 202.900000 -1.260000
vt 202.900000 -1.260000
vt 203.000000 -1.260000
vt 203.000000 -1.160000
vt 202.900000 -1.160000
vt 202.900000 -1.160000
vt 203.000000 -1.160000
vt 203.000000 -1.060000
vt 202.900000 -1.060000
vt 202.900000 -1.060000
vt 203.000000 -1.060000
vt 203.000000 -0.960000
vt 202.900000 -0.960000
vt 202.900000 -0.960000
vt 203.000000 -0.960000
vt 203.000000 -0.860000
vt 202.900000 -0.860000
vt 202.900000 -0.860000
vt 203.000000 -0.860000
vt 203.000000 -0.760000
vt 202.900000 -0.760000
vt 202.900000 -0.760000
vt 203.000000 -0.760000
vt 203.000000 -0.660000
vt 202.900000 -0.660000
vt 202.900000 -0.660000
vt 203.000000 -0.660000
vt 203.000000 -0.560000
vt 202.900000 -0.560000
vt 202.900000 -0.560000
vt 203.000000 -0.560000
vt 203.000000 -0.460000
vt 202.900000 -0.460000
vt 202.900000 -0.460000
vt 203.000000 -0.460000
vt 203.000000 -0.360000
vt 202.900000 -0.360000
vt 203.000000 -2.160000
vt 203.100000 -2.160000
vt 203.100000 -2.060000
vt 203.000000 -2.060000
vt 203.000000 -2.060000
vt 203.100000 -2.060000
vt 203.100000 -1.960000
vt 203.000000 -1.960000
vt 203.000000 -1.960000
vt 203.100000 -1.960000
vt 203.100000 -1.860000
vt 203.000000 -1.860000
vt 203.000000 -1.860000
vt 203.100000 -1.860000
vt 203.100000 -1.760000
vt 203.000000 -1.760000
vt 203.000000 -1.760000
vt 203.100000 -1.760000
vt 203.100000 -1.660000
vt 203.000000 -1.660000
vt 203.000000 -1.660000
vt 203.100000 -1.660000
vt 203.100000 -1.560000
vt 203.000000 -1.560000
vt 203.000000 -1.560000
vt 203.100000 -1.560000
vt 203.100000 -1.460000
vt 203.000000 -1.460000
vt 203.000000 -1.460000
vt 203.100000 -1.460000
vt 203.100000 -1.360000
vt 203.000000 -1.360000
vt 203.000000 -1.360000
vt 203.100000 -1.360000
vt 203.100000 -1.260000
vt 203.000000 -1.260000
vt 203.000000 -1.260000
vt 203.100000 -1.260000
vt 203.100000 -1.160000
vt 203.000000 -1.160000
vt 203.000000 -1.160000
vt 203.100000 -1.160000
vt 203.100000 -1.060000
vt 203.000000 -1.060000
vt 203.000000 -1.060000
vt 203.100000 -1.060000
vt 203.100000 -0.960000
vt 203.000000 -0.960000
vt 203.000000 -0.960000
vt 203.100000 -0.960000
vt 203.100000 -0.860000
vt 203.000000 -0.860000
vt 203.000000 -0.860000
vt 203.100000 -0.860000
vt 203.100000 -0.760000
vt 203.000000 -0.760000
vt 203.000000 -0.760000
vt 203.100000 -0.760000
vt 203.100000 -0.660000
vt 203.000000 -0.660000
vt 203.000000 -0.660000
vt 203.100000 -0.660000
vt 203.100000 -0.560000
vt 203.000000 -0.560000
vt 203.000000 -0.560000
vt 203.100000 -0.560000
vt 203.100000 -0.460000
vt 203.000000 -0.460000
vt 203.000000 -0.460000
vt 203.100000 -0.460000
vt 203.100000 -0.360000
vt 203.000000 -0.360000
vt 203.100000 -2.160000
vt 203.200000 -2.160000
vt 203.200000 -2.060000
vt 203.100000 -2.060000
vt 203.100000 -2.060000
vt 203.200000 -2.060000
vt 203.200000 -1.960000
vt 203.100000 -1.960000
vt 203.100000 -1.960000
vt 203.200000 -1.960000
vt 203.200000 -1.860000
vt 203.100000 -1.860000
vt 203.100000 -1.860000
vt 203.200000 -1.860000
vt 203.200000 -1.760000
vt 203.100000 -1.760000
vt 203.100000 -1.760000
vt 203.200000 -1.760000
vt 203.200000 -1.660000
vt 203.100000 -1.660000
vt 203.100000 -1.660000
vt 203.200000 -1.660000
vt 203.200000 -1.560000
vt 203.100000 -1.560000
vt 203.100000 -1.560000
vt 203.200000 -1.560000
vt 203.200000 -1.460000
vt 203.100000 -1.460000
vt 203.100000 -1.460000
vt 203.200000 -1.460000
vt 203.200000 -1.360000
vt 203.100000 -1.360000
vt 203.100000 -1.360000
vt 203.200000 -1.360000
vt 203.200000 -1.260000
vt 203.100000 -1.260000
vt 203.100000 -1.260000
vt 203.200000 -1.260000
vt 203.200000 -1.160000
vt 203.100000 -1.160000
vt 203.100000 -1.160000
vt 203.200000 -1.160000
vt 203.200000 -1.060000
vt 203.100000 -1.060000
vt 203.100000 -1.060000
vt 203.200000 -1.060000
vt 203.200000 -0.960000
vt 203.100000 -0.960000
vt 203.100000 -0.960000
vt 203.200000 -0.960000
vt 203.200000 -0.860000
vt 203.100000 -0.860000
vt 203.100000 -0.860000
vt 203.200000 -0.860000
vt 203.200000 -0.760000
vt 203.100000 -0.760000
vt 203.100000 -0.760000
vt 203.200000 -0.760000
vt 203.200000 -0.660000
vt 203.100000 -0.660000
vt 203.100000 -0.660000
vt 203.200000 -0.660000
vt 203.200000 -0.560000
vt 203.100000 -0.560000
vt 203.100000 -0.560000
vt 203.200000 -0.560000
vt 203.200000 -0.460000
vt 203.100000 -0.460000
vt 203.100000 -0.460000
vt 203.200000 -0.460000
vt 203.200000 -0.360000
vt 203.100000 -0.360000
vt 203.200000 -2.160000
vt 203.300000 -2.160000
vt 203.300000 -2.060000
vt 203.200000 -2.060000
vt 203.200000 -2.060000
vt 203.300000 -2.060000
vt 203.300000 -1.960000
vt 203.200000 -1.960000
vt 203.200000 -1.960000
vt 203.300000 -1.960000
vt 203.300000 -1.860000
vt 203.200000 -1.860000
vt 203.200000 -1.860000
vt 203.300000 -1.860000
vt 203.300000 -1.760000
vt 203.200000 -1.760000
vt 203.200000 -1.760000
vt 203.300000 -1.760000
vt 203.300000 -1.660000
vt 203.200000 -1.660000
vt 203.200000 -1.660000
vt 203.300000 -1.660000
vt 203.300000 -1.560000
vt 203.200000 -1.560000
vt 203.200000 -1.560000
vt 203.300000 -1.560000
vt 203.300000 -1.460000
vt 203.200000 -1.460000
vt 203.200000 -1.460000
vt 203.300000 -1.460000
vt 203.300000 -1.360000
vt 203.200000 -1.360000
vt 203.200000 -1.360000
vt 203.300000 -1.360000
vt 203.300000 -1.260000
vt 203.200000 -1.260000
vt 203.200000 -1.260000
vt 203.300000 -1.260000
vt 203.300000 -1.160000
vt 203.200000 -1.160000
vt 203.200000 -1.160000
vt 203.300000 -1.160000
vt 203.300000 -1.060000
vt 203.200000 -1.060000
vt 203.200000 -1.060000
vt 203.300000 -1.060000
vt 203.300000 -0.960000
vt 203.200000 -0.960000
vt 203.200000 -0.960000
vt 203.300000 -0.960000
vt 203.300000 -0.860000
vt 203.200000 -0.860000
vt 203.200000 -0.860000
vt 203.300000 -0.860000
vt 203.300000 -0.760000
vt 203.200000 -0.760000
vt 203.200000 -0.760000
vt 203.300000 -0.760000
vt 203.300000 -0.660000
vt 203.200000 -0.660000
vt 203.200000 -0.660000
vt 203.300000 -0.660000
vt 203.300000 -0.560000
vt 203.200000 -0.560000
vt 203.200000 -0.560000
vt 203.300000 -0.560000
vt 203.300000 -0.460000
vt 203.200000 -0.460000
vt 203.200000 -0.460000
vt 203.300000 -0.460000
vt 203.300000 -0.360000
vt 203.200000 -0.360000
vt 203.300000 -2.160000
vt 203.400000 -2.160000
vt 203.400000 -2.060000
vt 203.300000 -2.060000
vt 203.300000 -2.060000
vt 203.400000 -2.060000
vt 203.400000 -1.960000
vt 203.300000 -1.960000
vt 203.300000 -1.960000
vt 203.400000 -1.960000
vt 203.400000 -1.860000
vt 203.300000 -1.860000
vt 203.300000 -1.860000
vt 203.400000 -1.860000
vt 203.400000 -1.760000
vt 203.300000 -1.760000
vt 203.300000 -1.760000
vt 203.400000 -1.760000
vt 203.400000 -1.660000
vt 203.300000 -1.660000
vt 203.300000 -1.660000
vt 203.400000 -1.660000
vt 203.400000 -1.560000
vt 203.300000 -1.560000
vt 203.300000 -1.560000
vt 203.400000 -1.560000
vt 203.400000 -1.460000
vt 203.300000 -1.460000
vt 203.300000 -1.460000
vt 203.400000 -1.460000
vt 203.400000 -1.360000
vt 203.300000 -1.360000
vt 203.300000 -1.360000
vt 203.400000 -1.360000
vt 203.400000 -1.260000
vt 203.300000 -1.260000
vt 203.300000 -1.260000
vt 203.400000 -1.260000
vt 203.400000 -1.160000
vt 203.300000 -1.160000
vt 203.300000 -1.160000
vt 203.400000 -1.160000
vt 203.400000 -1.060000
vt 203.300000 -1.060000
vt 203.300000 -1.060000
vt 203.400000 -1.060000
vt 203.400000 -0.960000
vt 203.300000 -0.960000
vt 203.300000 -0.960000
vt 203.400000 -0.960000
vt 203.400000 -0.860000
vt 203.300000 -0.860000
vt 203.300000 -0.860000
vt 203.400000 -0.860000
vt 203.400000 -0.760000
vt 203.300000 -0.760000
vt 203.300000 -0.760000
vt 203.400000 -0.760000
vt 203.400000 -0.660000
vt 203.300000 -0.660000
vt 203.300000 -0.660000
vt 203.400000 -0.660000
vt 203.400000 -0.560000
vt 203.300000 -0.560000
vt 203.300000 -0.560000
vt 203.400000 -0.560000
vt 203.400000 -0.460000
vt 203.300000 -0.460000
vt 203.300000 -0.460000
vt 203.400000 -0.460000
vt 203.400000 -0.360000
vt 203.300000 -0.360000
vt 203.400000 -2.160000
vt 203.500000 -2.160000
vt 203.500000 -2.060000
vt 203.400000 -2.060000
vt 203.400000 -2.060000
vt 203.500000 -2.060000
vt 203.500000 -1.960000
vt 203.400000 -1.960000
vt 203.400000 -1.960000
vt 203.500000 -1.960000
vt 203.500000 -1.860000
vt 203.400000 -1.860000
vt 203.400000 -1.860000
vt 203.500000 -1.860000
vt 203.500000 -1.760000
vt 203.400000 -1.760000
vt 203.400000 -1.760000
vt 203.500000 -1.760000
vt 203.500000 -1.660000
vt 203.400000 -1.660000
vt 203.400000 -1.660000
vt 203.500000 -1.660000
vt 203.500000 -1.560000
vt 203.400000 -1.560000
vt 203.400000 -1.560000
vt 203.500000 -1.560000
vt 203.500000 -1.460000
vt 203.400000 -1.460000
vt 203.400000 -1.460000
vt 203.500000 -1.460000
vt 203.500000 -1.360000
vt 203.400000 -1.360000
vt 203.400000 -1.360000
vt 203.500000 -1.360000
vt 203.500000 -1.260000
vt 203.400000 -1.260000
vt 203.400000 -1.260000
vt 203.500000 -1.260000
vt 203.500000 -1.160000
vt 203.400000 -1.160000
vt 203.400000 -1.160000
vt 203.500000 -1.160000
vt 203.500000 -1.060000
vt 203.400000 -1.060000
vt 203.400000 -1.060000
vt 203.500000 -1.060000
vt 203.500000 -0.960000
vt 203.400000 -0.960000
vt 203.400000 -0.960000
vt 203.500000 -0.960000
vt 203.500000 -0.860000
vt 203.400000 -0.860000
vt 203.400000 -0.860000
vt 203.500000 -0.860000
vt 203.500000 -0.760000
vt 203.400000 -0.760000
vt 203.400000 -0.760000
vt 203.500000 -0.760000
vt 203.500000 -0.660000
vt 203.400000 -0.660000
vt 203.400000 -0.660000
vt 203.500000 -0.660000
vt 203.500000 -0.560000
vt 203.400000 -0.560000
vt 203.400000 -0.560000
vt 203.500000 -0.560000
vt 203.500000 -0.460000
vt 203.400000 -0.460000
vt 203.400000 -0.460000
vt 203.500000 -0.460000
vt 203.500000 -0.360000
vt 203.400000 -0.360000
vt 203.500000 -2.160000
vt 203.600000 -2.160000
vt 203.600000 -2.060000
vt 203.500000 -2.060000
vt 203.500000 -2.060000
vt 203.600000 -2.060000
vt 203.600000 -1.960000
vt 203.500000 -1.960000
vt 203.500000 -1.960000
vt 203.600000 -1.960000
vt 203.600000 -1.860000
vt 203.500000 -1.860000
vt 203.500000 -1.860000
vt 203.600000 -1.860000
vt 203.600000 -1.760000
vt 203.500000 -1.760000
vt 203.500000 -1.760000
vt 203.600000 -1.760000
vt 203.600000 -1.660000
vt 203.500000 -1.660000
vt 203.500000 -1.660000
vt 203.600000 -1.660000
vt 203.600000 -1.560000
vt 203.500000 -1.560000
vt 203.500000 -1.560000
vt 203.600000 -1.560000
vt 203.600000 -1.460000
vt 203.500000 -1.460000
vt 203.500000 -1.460000
vt 203.600000 -1.460000
vt 203.600000 -1.360000
vt 203.500000 -1.360000
vt 203.500000 -1.360000
vt 203.600000 -1.360000
vt 203.600000 -1.260000
vt 203.500000 -1.260000
vt 203.500000 -1.260000
vt 203.600000 -1.260000
vt 203.600000 -1.160000
vt 203.500000 -1.160000
vt 203.500000 -1.160000
vt 203.600000 -1.160000
vt 203.600000 -1.060000
vt 203.500000 -1.060000
vt 203.500000 -1.060000
vt 203.600000 -1.060000
vt 203.600000 -0.960000
vt 203.500000 -0.960000
vt 203.500000 -0.960000
vt 203.600000 -0.960000
vt 203.600000 -0.860000
vt 203.500000 -0.860000
vt 203.500000 -0.860000
vt 203.600000 -0.860000
vt 203.600000 -0.760000
vt 203.500000 -0.760000
vt 203.500000 -0.760000
vt 203.600000 -0.760000
vt 203.600000 -0.660000
vt 203.500000 -0.660000
vt 203.500000 -0.660000
vt 203.600000 -0.660000
vt 203.600000 -0.560000
vt 203.500000 -0.560000
vt 203.500000 -0.560000
vt 203.600000 -0.560000
vt 203.600000 -0.460000
vt 203.500000 -0.460000
vt 203.500000 -0.460000
vt 203.600000 -0.460000
vt 203.600000 -0.360000
vt 203.500000 -0.360000
vt 203.600000 -2.160000
vt 203.700000 -2.160000
vt 203.700000 -2.060000
vt 203.600000 -2.060000
vt 203.600000 -2.060000
vt 203.700000 -2.060000
vt 203.700000 -1.960000
vt 203.600000 -1.960000
vt 203.600000 -1.960000
vt 203.700000 -1.960000
vt 203.700000 -1.860000
vt 203.600000 -1.860000
vt 203.600000 -1.860000
vt 203.700000 -1.860000
vt 203.700000 -1.760000
vt 203.600000 -1.760000
vt 203.600000 -1.760000
vt 203.700000 -1.760000
vt 203.700000 -1.660000
vt 203.600000 -1.660000
vt 203.600000 -1.660000
vt 203.700000 -1.660000
vt 203.700000 -1.560000
vt 203.600000 -1.560000
vt 203.600000 -1.560000
vt 203.700000 -1.560000
vt 203.700000 -1.460000
vt 203.600000 -1.460000
vt 203.600000 -1.460000
vt 203.700000 -1.460000
vt 203.700000 -1.360000
vt 203.600000 -1.360000
vt 203.600000 -1.360000
vt 203.700000 -1.360000
vt 203.700000 -1.260000
vt 203.600000 -1.260000
vt 203.600000 -1.260000
vt 203.700000 -1.260000
vt 203.700000 -1.160000
vt 203.600000 -1.160000
vt 203.600000 -1.160000
vt 203.700000 -1.160000
vt 203.700000 -1.060000
vt 203.600000 -1.060000
vt 203.600000 -1.060000
vt 203.700000 -1.060000
vt 203.700000 -0.960000
vt 203.600000 -0.960000
vt 203.600000 -0.960000
vt 203.700000 -0.960000
vt 203.700000 -0.860000
vt 203.600000 -0.860000
vt 203.600000 -0.860000
vt 203.700000 -0.860000
vt 203.700000 -0.760000
vt 203.600000 -0.760000
vt 203.600000 -0.760000
vt 203.700000 -0.760000
vt 203.700000 -0.660000
vt 203.600000 -0.660000
vt 203.600000 -0.660000
vt 203.700000 -0.660000
vt 203.700000 -0.560000
vt 203.600000 -0.560000
vt 203.600000 -0.560000
vt 203.700000 -0.560000
vt 203.700000 -0.460000
vt 203.600000 -0.460000
vt 203.600000 -0.460000
vt 203.700000 -0.460000
vt 203.700000 -0.360000
vt 203.600000 -0.360000
vt 203.700000 -2.160000
vt 203.800000 -2.160000
vt 203.800000 -2.060000
vt 203.700000 -2.060000
vt 203.700000 -2.060000
vt 203.800000 -2.060000
vt 203.800000 -1.960000
vt 203.700000 -1.960000
vt 203.700000 -1.960000
vt 203.800000 -1.960000
vt 203.800000 -1.860000
vt 203.700000 -1.860000
vt 203.700000 -1.860000
vt 203.800000 -1.860000
vt 203.800000 -1.760000
vt 203.700000 -1.760000
vt 203.700000 -1.760000
vt 203.800000 -1.760000
vt 203.800000 -1.660000
vt 203.700000 -1.660000
vt 203.700000 -1.660000
vt 203.800000 -1.660000
vt 203.800000 -1.560000
vt 203.700000 -1.560000
vt 203.700000 -1.560000
vt 203.800000 -1.560000
vt 203.800000 -1.460000
vt 203.700000 -1.460000
vt 203.700000 -1.460000
vt 203.800000 -1.460000
vt 203.800000 -1.360000
vt 203.700000 -1.360000
vt 203.700000 -1.360000
vt 203.800000 -1.360000
vt 203.800000 -1.260000
vt 203.700000 -1.260000
vt 203.700000 -1.260000
vt 203.800000 -1.260000
vt 203.800000 -1.160000
vt 203.700000 -1.160000
vt 203.700000 -1.160000
vt 203.800000 -1.160000
vt 203.800000 -1.060000
vt 203.700000 -1.060000
vt 203.700000 -1.060000
vt 203.800000 -1.060000
vt 203.800000 -0.960000
vt 203.700000 -0.960000
vt 203.700000 -0.960000
vt 203.800000 -0.960000
vt 203.800000 -0.860000
vt 203.700000 -0.860000
vt 203.700000 -0.860000
vt 203.800000 -0.860000
vt 203.800000 -0.760000
vt 203.700000 -0.760000
vt 203.700000 -0.760000
vt 203.800000 -0.760000
vt 203.800000 -0.660000
vt 203.700000 -0.660000
vt 203.700000 -0.660000
vt 203.800000 -0.660000
vt 203.800000 -0.560000
vt 203.700000 -0.560000
vt 203.700000 -0.560000
vt 203.800000 -0.560000
vt 203.800000 -0.460000
vt 203.700000 -0.460000
vt 203.700000 -0.460000
vt 203.800000 -0.460000
vt 203.800000 -0.360000
vt 203.700000 -0.360000
usemtl DDEV_Sky
f 1/1 2/2 3/3 4/4
usemtl DDEV_Sky
f 5/5 6/6 7/7 8/8
usemtl DDEV_Sky
f 9/9 10/10 11/11 12/12
usemtl DDEV_Sky
f 13/13 14/14 15/15 16/16
usemtl DDEV_Sky
f 17/17 18/18 19/19 20/20
usemtl DDEV_Sky
f 21/21 22/22 23/23 24/24
usemtl DDEV_Sky
f 25/25 26/26 27/27 28/28
usemtl DDEV_Sky
f 29/29 30/30 31/31 32/32
usemtl DDEV_Sky
f 33/33 34/34 35/35 36/36
usemtl DDEV_Sky
f 37/37 38/38 39/39 40/40
usemtl DDEV_Sky
f 41/41 42/42 43/43 44/44
usemtl DDEV_Sky
f 45/45 46/46 47/47 48/48
usemtl DDEV_Sky
f 49/49 50/50 51/51 52/52
usemtl DDEV_Sky
f 53/53 54/54 55/55 56/56
usemtl DDEV_Sky
f 57/57 58/58 59/59 60/60
usemtl DDEV_Sky
f 61/61 62/62 63/63 64/64
usemtl DDEV_Sky
f 65/65 66/66 67/67 68/68
usemtl DDEV_Sky
f 69/69 70/70 71/71 72/72
usemtl DDEV_Sky
f 73/73 74/74 75/75 76/76
usemtl DDEV_Sky
f 77/77 78/78 79/79 80/80
usemtl DDEV_Sky
f 81/81 82/82 83/83 84/84
usemtl DDEV_Sky
f 85/85 86/86 87/87 88/88
usemtl DDEV_Sky
f 89/89 90/90 91/91 92/92
usemtl DDEV_Sky
f 93/93 94/94 95/95 96/96
usemtl DDEV_Grass
f 97/97 98/98 99/99 100/100
usemtl DDEV_Grass
f 101/101 102/102 103/103 104/104
usemtl DDEV_Road
f 105/105 106/106 107/107 108/108
usemtl DDEV_Road
f 109/109 110/110 111/111 112/112
usemtl DDEV_Road
f 113/113 114/114 115/115 116/116
usemtl DDEV_Road
f 117/117 118/118 119/119 120/120
usemtl DDEV_Pit
f 121/121 122/122 123/123 124/124
usemtl DDEV_Pit
f 125/125 126/126 127/127 128/128
usemtl DDEV_Pit
f 129/129 130/130 131/131 132/132
usemtl DDEV_Pit
f 133/133 134/134 135/135 136/136
usemtl DDEV_Pit
f 137/137 138/138 139/139 140/140
usemtl DDEV_Pit
f 141/141 142/142 143/143 144/144
usemtl DDEV_Pit
f 145/145 146/146 147/147 148/148
usemtl DDEV_Pit
f 149/149 150/150 151/151 152/152
usemtl DDEV_Pit
f 153/153 154/154 155/155 156/156
usemtl DDEV_Pit
f 157/157 158/158 159/159 160/160
usemtl DDEV_Pit
f 161/161 162/162 163/163 164/164
usemtl DDEV_Pit
f 165/165 166/166 167/167 168/168
usemtl DDEV_Pit
f 169/169 170/170 171/171 172/172
usemtl DDEV_Pit
f 173/173 174/174 175/175 176/176
usemtl DDEV_Pit
f 177/177 178/178 179/179 180/180
usemtl DDEV_Pit
f 181/181 182/182 183/183 184/184
usemtl DDEV_Pit
f 185/185 186/186 187/187 188/188
usemtl DDEV_Pit
f 189/189 190/190 191/191 192/192
usemtl DDEV_Pit
f 193/193 194/194 195/195 196/196
usemtl DDEV_Pit
f 197/197 198/198 199/199 200/200
usemtl DDEV_Pit
f 201/201 202/202 203/203 204/204
usemtl DDEV_Pit
f 205/205 206/206 207/207 208/208
usemtl DDEV_Pit
f 209/209 210/210 211/211 212/212
usemtl DDEV_Pit
f 213/213 214/214 215/215 216/216
usemtl DDEV_Pit
f 217/217 218/218 219/219 220/220
usemtl DDEV_Pit
f 221/221 222/222 223/223 224/224
usemtl DDEV_Pit
f 225/225 226/226 227/227 228/228
usemtl DDEV_Pit
f 229/229 230/230 231/231 232/232
usemtl DDEV_Pit
f 233/233 234/234 235/235 236/236
usemtl DDEV_Pit
f 237/237 238/238 239/239 240/240
usemtl DDEV_Pit
f 241/241 242/242 243/243 244/244
usemtl DDEV_Pit
f 245/245 246/246 247/247 248/248
usemtl DDEV_Pit
f 249/249 250/250 251/251 252/252
usemtl DDEV_Pit
f 253/253 254/254 255/255 256/256
usemtl DDEV_Pit
f 257/257 258/258 259/259 260/260
usemtl DDEV_Pit
f 261/261 262/262 263/263 264/264
usemtl DDEV_Pit
f 265/265 266/266 267/267 268/268
usemtl DDEV_Pit
f 269/269 270/270 271/271 272/272
usemtl DDEV_Pit
f 273/273 274/274 275/275 276/276
usemtl DDEV_Pit
f 277/277 278/278 279/279 280/280
usemtl DDEV_Pit
f 281/281 282/282 283/283 284/284
usemtl DDEV_Pit
f 285/285 286/286 287/287 288/288
usemtl DDEV_Pit
f 289/289 290/290 291/291 292/292
usemtl DDEV_Pit
f 293/293 294/294 295/295 296/296
usemtl DDEV_Pit
f 297/297 298/298 299/299 300/300
usemtl DDEV_Pit
f 301/301 302/302 303/303 304/304
usemtl DDEV_Pit
f 305/305 306/306 307/307 308/308
usemtl DDEV_Pit
f 309/309 310/310 311/311 312/312
usemtl DDEV_Pit
f 313/313 314/314 315/315 316/316
usemtl DDEV_Pit
f 317/317 318/318 319/319 320/320
usemtl DDEV_Pit
f 321/321 322/322 323/323 324/324
usemtl DDEV_Pit
f 325/325 326/326 327/327 328/328
usemtl DDEV_Pit
f 329/329 330/330 331/331 332/332
usemtl DDEV_Pit
f 333/333 334/334 335/335 336/336
usemtl DDEV_Pit
f 337/337 338/338 339/339 340/340
usemtl DDEV_Pit
f 341/341 342/342 343/343 344/344
usemtl DDEV_Pit
f 345/345 346/346 347/347 348/348
usemtl DDEV_Pit
f 349/349 350/350 351/351 352/352
usemtl DDEV_Pit
f 353/353 354/354 355/355 356/356
usemtl DDEV_Pit
f 357/357 358/358 359/359 360/360
usemtl DDEV_Pit
f 361/361 362/362 363/363 364/364
usemtl DDEV_Pit
f 365/365 366/366 367/367 368/368
usemtl DDEV_Pit
f 369/369 370/370 371/371 372/372
usemtl DDEV_Pit
f 373/373 374/374 375/375 376/376
usemtl DDEV_Pit
f 377/377 378/378 379/379 380/380
usemtl DDEV_Pit
f 381/381 382/382 383/383 384/384
usemtl DDEV_Pit
f 385/385 386/386 387/387 388/388
usemtl DDEV_Pit
f 389/389 390/390 391/391 392/392
usemtl DDEV_Pit
f 393/393 394/394 395/395 396/396
usemtl DDEV_Pit
f 397/397 398/398 399/399 400/400
usemtl DDEV_Pit
f 401/401 402/402 403/403 404/404
usemtl DDEV_Pit
f 405/405 406/406 407/407 408/408
usemtl DDEV_Pit
f 409/409 410/410 411/411 412/412
usemtl DDEV_Pit
f 413/413 414/414 415/415 416/416
usemtl DDEV_Pit
f 417/417 418/418 419/419 420/420
usemtl DDEV_Pit
f 421/421 422/422 423/423 424/424
usemtl DDEV_Pit
f 425/425 426/426 427/427 428/428
usemtl DDEV_Pit
f 429/429 430/430 431/431 432/432
usemtl DDEV_Pit
f 433/433 434/434 435/435 436/436
usemtl DDEV_Pit
f 437/437 438/438 439/439 440/440
usemtl DDEV_Pit
f 441/441 442/442 443/443 444/444
usemtl DDEV_Pit
f 445/445 446/446 447/447 448/448
usemtl DDEV_Pit
f 449/449 450/450 451/451 452/452
usemtl DDEV_Pit
f 453/453 454/454 455/455 456/456
usemtl DDEV_Pit
f 457/457 458/458 459/459 460/460
usemtl DDEV_Pit
f 461/461 462/462 463/463 464/464
usemtl DDEV_Pit
f 465/465 466/466 467/467 468/468
usemtl DDEV_Pit
f 469/469 470/470 471/471 472/472
usemtl DDEV_Pit
f 473/473 474/474 475/475 476/476
usemtl DDEV_Pit
f 477/477 478/478 479/479 480/480
usemtl DDEV_Pit
f 481/481 482/482 483/483 484/484
usemtl DDEV_Pit
f 485/485 486/486 487/487 488/488
usemtl DDEV_Pit
f 489/489 490/490 491/491 492/492
usemtl DDEV_Pit
f 493/493 494/494 495/495 496/496
usemtl DDEV_Pit
f 497/497 498/498 499/499 500/500
usemtl DDEV_Pit
f 501/501 502/502 503/503 504/504
usemtl DDEV_Pit
f 505/505 506/506 507/507 508/508
usemtl DDEV_Pit
f 509/509 510/510 511/511 512/512
usemtl DDEV_Pit
f 513/513 514/514 515/515 516/516
usemtl DDEV_Pit
f 517/517 518/518 519/519 520/520
usemtl DDEV_Pit
f 521/521 522/522 523/523 524/524
usemtl DDEV_Pit
f 525/525 526/526 527/527 528/528
usemtl DDEV_Pit
f 529/529 530/530 531/531 532/532
usemtl DDEV_Pit
f 533/533 534/534 535/535 536/536
usemtl DDEV_Pit
f 537/537 538/538 539/539 540/540
usemtl DDEV_Pit
f 541/541 542/542 543/543 544/544
usemtl DDEV_Pit
f 545/545 546/546 547/547 548/548
usemtl DDEV_Pit
f 549/549 550/550 551/551 552/552
usemtl DDEV_Pit
f 553/553 554/554 555/555 556/556
usemtl DDEV_Pit
f 557/557 558/558 559/559 560/560
usemtl DDEV_Pit
f 561/561 562/562 563/563 564/564
usemtl DDEV_Pit
f 565/565 566/566 567/567 568/568
usemtl DDEV_Pit
f 569/569 570/570 571/571 572/572
usemtl DDEV_Pit
f 573/573 574/574 575/575 576/576
usemtl DDEV_Pit
f 577/577 578/578 579/579 580/580
usemtl DDEV_Pit
f 581/581 582/582 583/583 584/584
usemtl DDEV_Pit
f 585/585 586/586 587/587 588/588
usemtl DDEV_Pit
f 589/589 590/590 591/591 592/592
usemtl DDEV_Pit
f 593/593 594/594 595/595 596/596
usemtl DDEV_Pit
f 597/597 598/598 599/599 600/600
usemtl DDEV_Pit
f 601/601 602/602 603/603 604/604
usemtl DDEV_Pit
f 605/605 606/606 607/607 608/608
usemtl DDEV_Pit
f 609/609 610/610 611/611 612/612
usemtl DDEV_Pit
f 613/613 614/614 615/615 616/616
usemtl DDEV_Pit
f 617/617 618/618 619/619 620/620
usemtl DDEV_Pit
f 621/621 622/622 623/623 624/624
usemtl DDEV_Pit
f 625/625 626/626 627/627 628/628
usemtl DDEV_Pit
f 629/629 630/630 631/631 632/632
usemtl DDEV_Pit
f 633/633 634/634 635/635 636/636
usemtl DDEV_Pit
f 637/637 638/638 639/639 640/640
usemtl DDEV_Pit
f 641/641 642/642 643/643 644/644
usemtl DDEV_Pit
f 645/645 646/646 647/647 648/648
usemtl DDEV_Pit
f 649/649 650/650 651/651 652/652
usemtl DDEV_Pit
f 653/653 654/654 655/655 656/656
usemtl DDEV_Pit
f 657/657 658/658 659/659 660/660
usemtl DDEV_Pit
f 661/661 662/662 663/663 664/664
usemtl DDEV_Pit
f 665/665 666/666 667/667 668/668
usemtl DDEV_Pit
f 669/669 670/670 671/671 672/672
usemtl DDEV_Pit
f 673/673 674/674 675/675 676/676
usemtl DDEV_Pit
f 677/677 678/678 679/679 680/680
usemtl DDEV_Pit
f 681/681 682/682 683/683 684/684
usemtl DDEV_Pit
f 685/685 686/686 687/687 688/688
usemtl DDEV_Pit
f 689/689 690/690 691/691 692/692
usemtl DDEV_Pit
f 693/693 694/694 695/695 696/696
usemtl DDEV_Pit
f 697/697 698/698 699/699 700/700
usemtl DDEV_Pit
f 701/701 702/702 703/703 704/704
usemtl DDEV_Pit
f 705/705 706/706 707/707 708/708
usemtl DDEV_Pit
f 709/709 710/710 711/711 712/712
usemtl DDEV_Pit
f 713/713 714/714 715/715 716/716
usemtl DDEV_Pit
f 717/717 718/718 719/719 720/720
usemtl DDEV_Pit
f 721/721 722/722 723/723 724/724
usemtl DDEV_Pit
f 725/725 726/726 727/727 728/728
usemtl DDEV_Pit
f 729/729 730/730 731/731 732/732
usemtl DDEV_Pit
f 733/733 734/734 735/735 736/736
usemtl DDEV_Pit
f 737/737 738/738 739/739 740/740
usemtl DDEV_Pit
f 741/741 742/742 743/743 744/744
usemtl DDEV_Pit
f 745/745 746/746 747/747 748/748
usemtl DDEV_Pit
f 749/749 750/750 751/751 752/752
usemtl DDEV_Pit
f 753/753 754/754 755/755 756/756
usemtl DDEV_Pit
f 757/757 758/758 759/759 760/760
usemtl DDEV_Pit
f 761/761 762/762 763/763 764/764
usemtl DDEV_Pit
f 765/765 766/766 767/767 768/768
usemtl DDEV_Pit
f 769/769 770/770 771/771 772/772
usemtl DDEV_Pit
f 773/773 774/774 775/775 776/776
usemtl DDEV_Pit
f 777/777 778/778 779/779 780/780
usemtl DDEV_Pit
f 781/781 782/782 783/783 784/784
usemtl DDEV_Pit
f 785/785 786/786 787/787 788/788
usemtl DDEV_Pit
f 789/789 790/790 791/791 792/792
usemtl DDEV_Pit
f 793/793 794/794 795/795 796/796
usemtl DDEV_Pit
f 797/797 798/798 799/799 800/800
usemtl DDEV_Pit
f 801/801 802/802 803/803 804/804
usemtl DDEV_Pit
f 805/805 806/806 807/807 808/808
usemtl DDEV_Pit
f 809/809 810/810 811/811 812/812
usemtl DDEV_Pit
f 813/813 814/814 815/815 816/816
usemtl DDEV_Pit
f 817/817 818/818 819/819 820/820
usemtl DDEV_Pit
f 821/821 822/822 823/823 824/824
usemtl DDEV_Pit
f 825/825 826/826 827/827 828/828
usemtl DDEV_Pit
f 829/829 830/830 831/831 832/832
usemtl DDEV_Pit
f 833/833 834/834 835/835 836/836
usemtl DDEV_Pit
f 837/837 838/838 839/839 840/840
usemtl DDEV_Pit
f 841/841 842/842 843/843 844/844
usemtl DDEV_Pit
f 845/845 846/846 847/847 848/848
usemtl DDEV_Pit
f 849/849 850/850 851/851 852/852
usemtl DDEV_Pit
f 853/853 854/854 855/855 856/856
usemtl DDEV_Pit
f 857/857 858/858 859/859 860/860
usemtl DDEV_Pit
f 861/861 862/862 863/863 864/864
usemtl DDEV_Pit
f 865/865 866/866 867/867 868/868
usemtl DDEV_Pit
f 869/869 870/870 871/871 872/872
usemtl DDEV_Pit
f 873/873 874/874 875/875 876/876
usemtl DDEV_Pit
f 877/877 878/878 879/879 880/880
usemtl DDEV_Pit
f 881/881 882/882 883/883 884/884
usemtl DDEV_Pit
f 885/885 886/886 887/887 888/888
usemtl DDEV_Pit
f 889/889 890/890 891/891 892/892
usemtl DDEV_Pit
f 893/893 894/894 895/895 896/896
usemtl DDEV_Pit
f 897/897 898/898 899/899 900/900
usemtl DDEV_Pit
f 901/901 902/902 903/903 904/904
usemtl DDEV_Pit
f 905/905 906/906 907/907 908/908
usemtl DDEV_Pit
f 909/909 910/910 911/911 912/912
usemtl DDEV_Pit
f 913/913 914/914 915/915 916/916
usemtl DDEV_Pit
f 917/917 918/918 919/919 920/920
usemtl DDEV_Pit
f 921/921 922/922 923/923 924/924
usemtl DDEV_Pit
f 925/925 926/926 927/927 928/928
usemtl DDEV_Pit
f 929/929 930/930 931/931 932/932
usemtl DDEV_Pit
f 933/933 934/934 935/935 936/936
usemtl DDEV_Pit
f 937/937 938/938 939/939 940/940
usemtl DDEV_Pit
f 941/941 942/942 943/943 944/944
usemtl DDEV_Pit
f 945/945 946/946 947/947 948/948
usemtl DDEV_Pit
f 949/949 950/950 951/951 952/952
usemtl DDEV_Pit
f 953/953 954/954 955/955 956/956
usemtl DDEV_Pit
f 957/957 958/958 959/959 960/960
usemtl DDEV_Pit
f 961/961 962/962 963/963 964/964
usemtl DDEV_Pit
f 965/965 966/966 967/967 968/968
usemtl DDEV_Pit
f 969/969 970/970 971/971 972/972
usemtl DDEV_Pit
f 973/973 974/974 975/975 976/976
usemtl DDEV_Pit
f 977/977 978/978 979/979 980/980
usemtl DDEV_Pit
f 981/981 982/982 983/983 984/984
usemtl DDEV_Pit
f 985/985 986/986 987/987 988/988
usemtl DDEV_Pit
f 989/989 990/990 991/991 992/992
usemtl DDEV_Pit
f 993/993 994/994 995/995 996/996
usemtl DDEV_Pit
f 997/997 998/998 999/999 1000/1000
usemtl DDEV_Pit
f 1001/1001 1002/1002 1003/1003 1004/1004
usemtl DDEV_Pit
f 1005/1005 1006/1006 1007/1007 1008/1008
usemtl DDEV_Pit
f 1009/1009 1010/1010 1011/1011 1012/1012
usemtl DDEV_Pit
f 1013/1013 1014/1014 1015/1015 1016/1016
usemtl DDEV_Pit
f 1017/1017 1018/1018 1019/1019 1020/1020
usemtl DDEV_Pit
f 1021/1021 1022/1022 1023/1023 1024/1024
usemtl DDEV_Pit
f 1025/1025 1026/1026 1027/1027 1028/1028
usemtl DDEV_Pit
f 1029/1029 1030/1030 1031/1031 1032/1032
usemtl DDEV_Pit
f 1033/1033 1034/1034 1035/1035 1036/1036
usemtl DDEV_Pit
f 1037/1037 1038/1038 1039/1039 1040/1040
usemtl DDEV_Pit
f 1041/1041 1042/1042 1043/1043 1044/1044
usemtl DDEV_Pit
f 1045/1045 1046/1046 1047/1047 1048/1048
usemtl DDEV_Pit
f 1049/1049 1050/1050 1051/1051 1052/1052
usemtl DDEV_Pit
f 1053/1053 1054/1054 1055/1055 1056/1056
usemtl DDEV_Pit
f 1057/1057 1058/1058 1059/1059 1060/1060
usemtl DDEV_Pit
f 1061/1061 1062/1062 1063/1063 1064/1064
usemtl DDEV_Pit
f 1065/1065 1066/1066 1067/1067 1068/1068
usemtl DDEV_Pit
f 1069/1069 1070/1070 1071/1071 1072/1072
usemtl DDEV_Pit
f 1073/1073 1074/1074 1075/1075 1076/1076
usemtl DDEV_Pit
f 1077/1077 1078/1078 1079/1079 1080/1080
usemtl DDEV_Pit
f 1081/1081 1082/1082 1083/1083 1084/1084
usemtl DDEV_Pit
f 1085/1085 1086/1086 1087/1087 1088/1088
usemtl DDEV_Pit
f 1089/1089 1090/1090 1091/1091 1092/1092
usemtl DDEV_Pit
f 1093/1093 1094/1094 1095/1095 1096/1096
usemtl DDEV_Pit
f 1097/1097 1098/1098 1099/1099 1100/1100
usemtl DDEV_Pit
f 1101/1101 1102/1102 1103/1103 1104/1104
usemtl DDEV_Pit
f 1105/1105 1106/1106 1107/1107 1108/1108
usemtl DDEV_Pit
f 1109/1109 1110/1110 1111/1111 1112/1112
usemtl DDEV_Pit
f 1113/1113 1114/1114 1115/1115 1116/1116
usemtl DDEV_Pit
f 1117/1117 1118/1118 1119/1119 1120/1120
usemtl DDEV_Pit
f 1121/1121 1122/1122 1123/1123 1124/1124
usemtl DDEV_Pit
f 1125/1125 1126/1126 1127/1127 1128/1128
usemtl DDEV_Pit
f 1129/1129 1130/1130 1131/1131 1132/1132
usemtl DDEV_Pit
f 1133/1133 1134/1134 1135/1135 1136/1136
usemtl DDEV_Pit
f 1137/1137 1138/1138 1139/1139 1140/1140
usemtl DDEV_Pit
f 1141/1141 1142/1142 1143/1143 1144/1144
usemtl DDEV_Pit
f 1145/1145 1146/1146 1147/1147 1148/1148
usemtl DDEV_Pit
f 1149/1149 1150/1150 1151/1151 1152/1152
usemtl DDEV_Pit
f 1153/1153 1154/1154 1155/1155 1156/1156
usemtl DDEV_Pit
f 1157/1157 1158/1158 1159/1159 1160/1160
usemtl DDEV_Pit
f 1161/1161 1162/1162 1163/1163 1164/1164
usemtl DDEV_Pit
f 1165/1165 1166/1166 1167/1167 1168/1168
usemtl DDEV_Pit
f 1169/1169 1170/1170 1171/1171 1172/1172
usemtl DDEV_Pit
f 1173/1173 1174/1174 1175/1175 1176/1176
usemtl DDEV_Pit
f 1177/1177 1178/1178 1179/1179 1180/1180
usemtl DDEV_Pit
f 1181/1181 1182/1182 1183/1183 1184/1184
usemtl DDEV_Pit
f 1185/1185 1186/1186 1187/1187 1188/1188
usemtl DDEV_Pit
f 1189/1189 1190/1190 1191/1191 1192/1192
usemtl DDEV_Pit
f 1193/1193 1194/1194 1195/1195 1196/1196
usemtl DDEV_Pit
f 1197/1197 1198/1198 1199/1199 1200/1200
usemtl DDEV_Pit
f 1201/1201 1202/1202 1203/1203 1204/1204
usemtl DDEV_Pit
f 1205/1205 1206/1206 1207/1207 1208/1208
usemtl DDEV_Pit
f 1209/1209 1210/1210 1211/1211 1212/1212
usemtl DDEV_Pit
f 1213/1213 1214/1214 1215/1215 1216/1216
usemtl DDEV_Pit
f 1217/1217 1218/1218 1219/1219 1220/1220
usemtl DDEV_Pit
f 1221/1221 1222/1222 1223/1223 1224/1224
usemtl DDEV_Pit
f 1225/1225 1226/1226 1227/1227 1228/1228
usemtl DDEV_Pit
f 1229/1229 1230/1230 1231/1231 1232/1232
usemtl DDEV_Pit
f 1233/1233 1234/1234 1235/1235 1236/1236
usemtl DDEV_Pit
f 1237/1237 1238/1238 1239/1239 1240/1240
usemtl DDEV_Pit
f 1241/1241 1242/1242 1243/1243 1244/1244
usemtl DDEV_Pit
f 1245/1245 1246/1246 1247/1247 1248/1248
usemtl DDEV_Pit
f 1249/1249 1250/1250 1251/1251 1252/1252
usemtl DDEV_Pit
f 1253/1253 1254/1254 1255/1255 1256/1256
usemtl DDEV_Pit
f 1257/1257 1258/1258 1259/1259 1260/1260
usemtl DDEV_Pit
f 1261/1261 1262/1262 1263/1263 1264/1264
usemtl DDEV_Pit
f 1265/1265 1266/1266 1267/1267 1268/1268
usemtl DDEV_Pit
f 1269/1269 1270/1270 1271/1271 1272/1272
